<?xml version="1.0" standalone="no" ?>
<!DOCTYPE svg PUBLIC "-//W3C//DTD SVG 1.1//EN" "http://www.w3.org/Graphics/SVG/1.1/DTD/svg11.dtd">
<!--
2013-9-30: Created.
-->
<svg>
    <metadata>
        Created by iconfont
    </metadata>
    <defs>

        <font id="iconfont" horiz-adv-x="1024">
            <font-face font-family="iconfont"
                       font-weight="500"
                       font-stretch="normal"
                       units-per-em="1024"
                       ascent="896"
                       descent="-128" />
            <missing-glyph />

            <glyph glyph-name="x" unicode="x" horiz-adv-x="1001"
                   d="M281 543q-27 -1 -53 -1h-83q-18 0 -36.5 -6t-32.5 -18.5t-23 -32t-9 -45.5v-76h912v41q0 16 -0.5 30t-0.5 18q0 13 -5 29t-17 29.5t-31.5 22.5t-49.5 9h-133v-97h-438v97zM955 310v-52q0 -23 0.5 -52t0.5 -58t-10.5 -47.5t-26 -30t-33 -16t-31.5 -4.5q-14 -1 -29.5 -0.5
t-29.5 0.5h-32l-45 128h-439l-44 -128h-29h-34q-20 0 -45 1q-25 0 -41 9.5t-25.5 23t-13.5 29.5t-4 30v167h911zM163 247q-12 0 -21 -8.5t-9 -21.5t9 -21.5t21 -8.5q13 0 22 8.5t9 21.5t-9 21.5t-22 8.5zM316 123q-8 -26 -14 -48q-5 -19 -10.5 -37t-7.5 -25t-3 -15t1 -14.5
t9.5 -10.5t21.5 -4h37h67h81h80h64h36q23 0 34 12t2 38q-5 13 -9.5 30.5t-9.5 34.5q-5 19 -11 39h-368zM336 498v228q0 11 2.5 23t10 21.5t20.5 15.5t34 6h188q31 0 51.5 -14.5t20.5 -52.5v-227h-327z" />

            <glyph glyph-name="chat" unicode="&#58914;" d="M893.186 71.019l-61.479 16.413c-61.506-137.776-199.415-233.966-360.031-233.966-217.792 0-394.315 176.549-394.315 394.315 0 203.24 155.57 372.858 353.525 394.316v81.583h54.388c244.879 0 462.3-201.779 462.3-450.67-0-83.892-24.671-153.179-54.388-201.99zM430.885 222.526v365.183c-165.424-23.875-299.137-168.874-299.137-339.928 0-187.755 152.197-339.926 339.927-339.926 126.809 0 258.796 78.102 304.819 194.289l-345.609 120.382zM485.274 669.292v-407.913l368.528-125.454c21.724 38.693 36.356 81.158 36.356 137.085 0 214.58-193.333 397.344-404.884 396.282z" horiz-adv-x="1024" />

            <glyph glyph-name="touxiang" unicode="&#58908;" d="M624.974539 129.606215c-10.365068 5.993504-21.298072 12.141528-32.112372 17.649985l-9.513678 17.651009c41.596374 31.644721 71.313186 90.76419 73.268724 143.315056 36.550451 39.320541 12.158924 140.269697 5.692652 164.215062 8.514931 26.453489 4.38282 55.502082-11.350512 78.553077-16.978696 24.828478-45.034682 39.07904-76.993558 39.07904-25.177426 0-51.837622-8.44023-79.32772-25.090445-98.027617-0.980327-113.074312-43.364647-113.554242-89.751117-5.212722-14.109346-28.186969-85.257779 5.016247-164.181293 0.970094-53.353139 31.144324-114.188692 73.638137-146.349159l-17.531282-35.091216L309.640688 129.606215l-44.663222-89.313142c0 0 124.673487-82.594113 260.885775-82.594113 119.496581 0 252.735142 82.594113 252.735142 82.594113l-66.99381 89.313142L624.974539 129.606215zM510.623142 746.3897c-246.671029 0-446.629153-199.969381-446.629153-446.62813 0-246.670006 199.958124-446.629153 446.629153-446.629153 246.660796 0 446.62813 199.958124 446.62813 446.629153C957.251272 546.420319 757.283937 746.3897 510.623142 746.3897zM510.634398-102.227897c-222.00628 0-401.965931 179.960675-401.965931 401.966954 0 221.995023 179.959651 401.965931 401.965931 401.965931 221.994 0 401.966954-179.970908 401.966954-401.965931C912.600329 77.7338 732.628398-102.227897 510.634398-102.227897z" horiz-adv-x="1024" />

            <glyph glyph-name="guashi" unicode="&#60232;" d="M462.3 463.1c-23.7 9.9-48.7 14.9-74.5 14.9-25.8 0-50.8-5-74.5-14.9-22.8-9.5-43.3-23.2-60.9-40.5-17.6-17.4-31.5-37.5-41.2-60-10-23.3-15.1-48-15.1-73.4l0-19.4 0-29.8 0-72.4 0-131.6c0-18.7 15.5-34 34.5-34L545 2c19 0 34.5 15.2 34.5 34l0 204 0 19.5 0 10.3 0 0 0 19.4c0 25.4-5.1 50.1-15.1 73.4-9.7 22.5-23.5 42.6-41.2 60C505.6 439.9 485.1 453.5 462.3 463.1zM261.7 340.7c6.9 15.8 16.7 30.2 29.3 42.5 12.6 12.4 27.2 22.1 43.5 28.9l0 0 0 0c16.8 7.1 34.7 10.6 53.2 10.6 18.5 0 36.4-3.6 53.2-10.6 16.3-6.9 31-16.6 43.5-29l0.1-0.1 0.1-0.1c12.5-12.2 22.3-26.5 29.2-42.5 6.3-14.5 9.8-29.8 10.5-45.6L251.2 294.8C252 310.7 255.5 326.1 261.7 340.7zM524.4 57 251.1 57 251.1 167.5l0 72.4 273.3 0L524.4 57zM371.7 140.6l0-32.4c0-9.3 7.6-16.9 17-16.9 9.4 0 17 7.6 17 16.9l0 32.5c9.9 5.8 16.6 16.5 16.6 28.8 0 18.5-15.1 33.5-33.6 33.5-18.6 0-33.6-15-33.6-33.5C355 157.2 361.7 146.4 371.7 140.6zM96.1-2.1c-17.7 0-32 14.3-32 32L64.1 706.1c0 34.3 27.9 62.2 62.2 62.2L899 768.3c34.3 0 62.2-27.9 62.2-62.2l0-643.2c0-34.3-27.9-62.2-62.2-62.2L703.9 0.7c-17.7 0-32 14.3-32 32s14.3 32 32 32l193.3 0L897.2 704.3 128.1 704.3l0-674.4C128.1 12.2 113.8-2.1 96.1-2.1zM800 542 416 542c-17.7 0-32 14.3-32 32l0 0c0 17.7 14.3 32 32 32l384 0c17.7 0 32-14.3 32-32l0 0C832 556.3 817.7 542 800 542zM800 398 671.6 398c-17.7 0-32 14.3-32 32l0 0c0 17.7 14.3 32 32 32L800 462c17.7 0 32-14.3 32-32l0 0C832 412.3 817.7 398 800 398zM800 254 671.6 254c-17.7 0-32 14.3-32 32l0 0c0 17.7 14.3 32 32 32L800 318c17.7 0 32-14.3 32-32l0 0C832 268.3 817.7 254 800 254z" horiz-adv-x="1024" />

            <glyph glyph-name="caidan" unicode="&#58883;" d="M311.612087 333.906092l-100.19498 0c-55.334259 0-100.184747-44.856627-100.184747-100.19805l0-100.189863c0-55.336306 44.851511-100.192933 100.184747-100.192933l100.19498 0c55.331189 0 100.192933 44.856627 100.192933 100.192933l0 100.189863C411.80502 289.050488 366.943276 333.906092 311.612087 333.906092zM261.518179 133.519202c-27.6702 0-50.101071 22.427802-50.101071 50.095955 0 27.6702 22.430872 50.093908 50.101071 50.093908 27.663036 0 50.093908-22.422685 50.093908-50.093908C311.612087 155.947004 289.181215 133.519202 261.518179 133.519202zM562.093908 634.483868l300.582893 0c27.66099 0 50.090838 22.425755 50.090838 50.093908 0 27.6702-22.430872 50.095955-50.090838 50.095955L562.093908 734.673731c-27.663036 0-50.093908-22.425755-50.093908-50.095955C512 656.909623 534.430872 634.483868 562.093908 634.483868zM311.612087 734.673731l-100.19498 0c-55.334259 0-100.184747-44.856627-100.184747-100.189863l0-100.192933c0-55.334259 44.851511-100.189863 100.184747-100.189863l100.19498 0c55.331189 0 100.192933 44.856627 100.192933 100.189863l0 100.192933C411.80502 689.818127 366.943276 734.673731 311.612087 734.673731zM261.518179 534.291958c-27.6702 0-50.101071 22.430872-50.101071 50.093908 0 27.668153 22.430872 50.099025 50.101071 50.099025 27.663036 0 50.093908-22.430872 50.093908-50.099025C311.612087 556.721807 289.181215 534.291958 261.518179 534.291958zM862.675778 333.906092 562.093908 333.906092c-27.663036 0-50.093908-22.430872-50.093908-50.099025s22.430872-50.099025 50.093908-50.099025l300.582893 0c27.66099 0 50.090838 22.430872 50.090838 50.099025S890.336768 333.906092 862.675778 333.906092zM862.675778 534.291958 562.093908 534.291958c-27.663036 0-50.093908-22.425755-50.093908-50.099025 0-27.666106 22.430872-50.090838 50.093908-50.090838l300.582893 0c27.66099 0 50.090838 22.425755 50.090838 50.090838C912.76764 511.866203 890.336768 534.291958 862.675778 534.291958zM862.675778 133.519202 562.093908 133.519202c-27.663036 0-50.093908-22.427802-50.093908-50.093908 0-27.668153 22.430872-50.099025 50.093908-50.099025l300.582893 0c27.66099 0 50.090838 22.430872 50.090838 50.099025C912.76764 111.090377 890.336768 133.519202 862.675778 133.519202z" horiz-adv-x="1024" />

            <glyph glyph-name="zhongfucishu" unicode="&#58919;" d="M960.471 426.107c-23.265 0-42.107-18.862-42.107-42.107 0-113.951-92.713-206.664-206.664-206.664h-546.529l63.631 63.631c16.445 16.425 16.445 43.090 0 59.515-16.425 16.466-43.090 16.466-59.535 0l-135.496-135.496c-0.983-0.983-1.925-2.028-2.826-3.113-0.061-0.082-0.143-0.164-0.205-0.266-0.799-0.983-1.556-2.007-2.253-3.052-0.082-0.164-0.184-0.307-0.266-0.451-0.655-1.004-1.29-2.048-1.843-3.092-0.082-0.164-0.164-0.328-0.246-0.471-0.553-1.065-1.065-2.15-1.536-3.297-0.061-0.123-0.102-0.266-0.164-0.389-0.451-1.147-0.86-2.314-1.229-3.502-0.041-0.102-0.061-0.205-0.082-0.307-0.348-1.208-0.655-2.437-0.881-3.686-0.020-0.082-0.020-0.164-0.041-0.246-0.246-1.249-0.43-2.499-0.532-3.789 0-0.082 0-0.143-0.020-0.225-0.123-1.29-0.184-2.56-0.184-3.871 0-1.29 0.061-2.601 0.184-3.891 0-0.061 0-0.143 0.020-0.205 0.123-1.29 0.307-2.54 0.532-3.809 0.020-0.061 0.020-0.143 0.041-0.225 0.246-1.27 0.532-2.478 0.881-3.686 0.020-0.102 0.041-0.205 0.082-0.307 0.348-1.208 0.758-2.355 1.229-3.502 0.061-0.143 0.102-0.266 0.164-0.41 0.451-1.126 0.963-2.212 1.536-3.277 0.082-0.164 0.143-0.328 0.246-0.471 0.573-1.085 1.188-2.109 1.843-3.113 0.082-0.143 0.184-0.307 0.266-0.43 0.717-1.065 1.454-2.089 2.253-3.072 0.061-0.061 0.143-0.164 0.205-0.266 0.881-1.085 1.823-2.13 2.826-3.092v0l135.496-135.496c8.212-8.212 18.985-12.349 29.757-12.349s21.545 4.116 29.778 12.349c16.445 16.445 16.445 43.090 0 59.515l-63.631 63.631h546.55c160.379 0 290.836 130.478 290.836 290.857 0 23.265-18.842 42.127-42.086 42.127v0zM63.549 341.893c23.265 0 42.107 18.842 42.107 42.107 0 113.93 92.713 206.664 206.664 206.664h546.55l-63.631-63.631c-16.445-16.445-16.445-43.090 0-59.535 8.212-8.212 19.005-12.329 29.778-12.329 10.752 0 21.545 4.096 29.757 12.329l135.496 135.496c0.983 1.004 1.946 2.048 2.826 3.113 0.061 0.102 0.123 0.184 0.205 0.266 0.799 1.004 1.556 2.028 2.253 3.072 0.102 0.143 0.184 0.287 0.287 0.43 0.655 1.024 1.29 2.089 1.864 3.133 0.082 0.164 0.164 0.307 0.225 0.451 0.553 1.065 1.085 2.171 1.536 3.297 0.061 0.143 0.102 0.266 0.164 0.389 0.43 1.167 0.86 2.314 1.229 3.523 0.020 0.082 0.041 0.184 0.082 0.287 0.348 1.208 0.635 2.437 0.901 3.686 0.020 0.082 0.020 0.164 0.041 0.246 0.225 1.249 0.43 2.499 0.532 3.809 0 0.061 0.020 0.123 0.020 0.184 0.123 1.29 0.184 2.601 0.184 3.891 0 1.311-0.061 2.621-0.184 3.912 0 0.061-0.020 0.123-0.020 0.184-0.102 1.29-0.328 2.56-0.532 3.809-0.020 0.082-0.020 0.164-0.041 0.225-0.266 1.27-0.553 2.499-0.901 3.707-0.041 0.102-0.061 0.184-0.082 0.287-0.369 1.208-0.778 2.355-1.229 3.523-0.061 0.123-0.102 0.266-0.164 0.389-0.451 1.147-0.983 2.212-1.536 3.297-0.061 0.164-0.143 0.328-0.225 0.451-0.573 1.085-1.208 2.109-1.864 3.113-0.102 0.164-0.184 0.307-0.287 0.43-0.696 1.065-1.454 2.089-2.253 3.052-0.082 0.102-0.143 0.184-0.205 0.287-0.901 1.106-1.843 2.13-2.826 3.113v0l-135.496 135.496c-16.445 16.445-43.090 16.445-59.535 0s-16.445-43.090 0-59.535l63.631-63.611h-546.57c-160.379-0.041-290.857-130.519-290.857-290.898 0-23.265 18.862-42.107 42.107-42.107v0zM63.549 341.893z" horiz-adv-x="1024" />

            <glyph glyph-name="qiche" unicode="&#58922;" d="M949.331905 326.723505c-3.657296 48.948829-35.241642 92.183516-80.490196 112.342648l-40.647769 191.108572c-14.877849 69.88772-85.074607 126.727263-156.523893 126.727263L351.41 756.901988c-71.450309 0-141.66651-56.838519-156.523893-126.727263l-40.667212-191.108572c-45.249577-20.178575-76.813456-63.393819-80.471776-112.342648l-9.205663-122.597199c-3.945869-52.668547 26.01449-100.158141 73.031317-119.370715 10.809183-42.331108 48.989761-73.217558 94.198405-73.217558 42.002626 0 77.757968 26.221198 91.361801 64.052828l376.812041 0c13.604856-37.83163 49.359174-64.052828 91.342358-64.052828 45.208645 0 83.429131 30.886451 94.238314 73.217558 47.01785 19.212574 76.956719 66.681702 72.991408 119.370715L949.331905 326.723505zM854.949304 132.265652c-11.896958-2.774183-20.50808-13.08911-21.125133-25.296129-1.12973-22.830985-19.809161-40.72861-42.535769-40.72861-22.151509 0-40.359196 16.808828-42.332131 39.105646-1.233084 14.117532-13.068643 24.925692-27.248597 24.925692L301.351907 130.272251c-14.178931 0-25.995047-10.80816-27.248597-24.925692-1.972934-22.296819-20.159132-39.105646-42.331108-39.105646-22.707165 0-41.385573 17.877159-42.516326 40.72861-0.596588 12.20702-9.227152 22.521946-21.104667 25.296129-31.358195 7.274684-51.517327 35.139312-49.071625 67.771523l9.205663 122.576733c2.384303 31.851429 26.406416 60.763922 58.44204 70.278623 10.43977 3.123131 18.041912 12.123109 19.357883 22.974247 0.164752 1.561565 0.287549 3.14462 0.410346 4.685719 0.062422 0.801249 0.062422 1.622964 0.205685 2.363837l41.674145 195.875133c9.617032 45.229111 56.797587 83.409688 103.034655 83.409688l320.260048 0c46.215578 0 93.397157-38.180578 103.034655-83.409688l41.652655-195.85569c0.165776-0.821715 0.165776-1.622964 0.227174-2.424212 0.102331-1.520633 0.226151-3.042289 0.410346-4.583388 1.274016-10.850116 8.898671-19.911492 19.379373-23.035646 32.015158-9.514701 56.037271-38.427194 58.420551-70.278623l9.187243-122.576733C906.446165 167.42543 886.266567 139.540336 854.949304 132.265652zM300.858674 413.256324l421.342234 0c10.151197 0 18.885116 3.759627 24.248264 10.233062 5.794983 6.67912 8.137331 15.823384 6.616698 25.749454-0.122797 0.656963-0.245593 1.314948-0.390903 1.971911l-33.103956 143.846152c-4.152577 22.685675-26.591635 41.632189-49.689702 41.632189L353.218182 636.689093c-23.097044 0-45.578058-18.946514-49.728588-41.632189l-33.084513-143.846152c-0.164752-0.656963-0.287549-1.314948-0.38988-1.971911-1.541099-9.925047 0.801249-19.069311 6.26775-25.358551C281.994024 417.016974 290.707476 413.256324 300.858674 413.256324zM356.608396 581.986213l309.863257 0 26.220175-114.028033L330.367755 467.95818 356.608396 581.986213zM267.917424 319.571618c-34.131355 0-61.811788-27.679409-61.811788-61.811788 0-34.151821 27.680433-61.811788 61.811788-61.811788 34.132378 0 61.792345 27.659967 61.792345 61.811788C329.709769 291.892209 302.049802 319.571618 267.917424 319.571618zM755.162624 319.571618c-34.132378 0-61.811788-27.679409-61.811788-61.811788 0-34.151821 27.679409-61.811788 61.811788-61.811788 34.151821 0 61.810764 27.659967 61.810764 61.811788C816.973388 291.892209 789.314445 319.571618 755.162624 319.571618z" horiz-adv-x="1024" />

            <glyph glyph-name="huishouzhan1" unicode="&#58903;" d="M621.730909 91.415273A36.561455 36.561455 0 0 0 585.146182 128V530.269091a36.561455 36.561455 0 1 0 73.122909 0V128a36.538182 36.538182 0 0 0-36.538182-36.584727zM402.269091 91.415273A36.538182 36.538182 0 0 0 365.730909 128V530.269091a36.538182 36.538182 0 0 0 36.538182 36.584727 36.538182 36.538182 0 0 0 36.584727-36.584727V128a36.538182 36.538182 0 0 0-36.584727-36.584727zM987.461818 713.146182h-182.923636V786.269091c0 60.509091-48.779636 109.730909-108.869818 109.730909h-366.545455a109.800727 109.800727 0 0 1-109.684364-109.730909v-73.146182H36.538182C16.360727 713.146182 0 696.762182 0 676.538182S16.360727 640 36.538182 640h950.923636a36.561455 36.561455 0 1 1 0 73.146182zM292.538182 786.269091c0 20.130909 16.453818 36.584727 36.584727 36.584727h366.545455c20.037818 0 35.770182-16.081455 35.770181-36.584727v-73.146182H292.538182V786.269091zM768.186182-128H256.093091a109.847273 109.847273 0 0 0-109.730909 109.684364V530.827636a36.584727 36.584727 0 1 0 73.122909 0v-549.143272c0-20.177455 16.407273-36.538182 36.584727-36.538182h512.093091a36.538182 36.538182 0 0 1 36.538182 36.538182V529.314909a36.584727 36.584727 0 1 0 73.122909 0v-547.630545A109.777455 109.777455 0 0 0 768.186182-128z" horiz-adv-x="1024" />

            <glyph glyph-name="xiangqing" unicode="&#58952;" d="M686.8 896H204.8c-56.472 0-102.4-46-102.4-102.4v-819.2c0-56.448 45.928-102.4 102.4-102.4h614.4c56.472 0 102.4 45.952 102.4 102.4V661.2L686.8 896z m132.448-921.6H204.8V793.6h409.6v-204.8h204.8l0.048-614.4zM307.2 435.2h307.2v-102.4H307.2zM307.2 230.4h409.6V128H307.2z" horiz-adv-x="1024" />

            <glyph glyph-name="xitongguanli" unicode="&#59187;" d="M796.672 271.36c-4.608 4.096-7.168 6.144-9.728 8.192-27.648 20.992-37.888 44.032-32.256 81.92 19.968 139.264-93.184 253.952-206.848 266.24-143.36 15.36-261.632-74.752-280.064-212.48-21.504-164.864 123.904-302.592 287.232-271.36 18.432 3.584 30.72-0.512 43.008-13.824 8.704-9.216 19.456-16.896 32.768-28.16-37.376-19.456-37.888-50.176-35.84-81.92 2.048-31.232-3.584-60.928-34.816-73.216-33.792-13.824-71.68-16.384-103.424 4.096-14.336 9.216-22.016 32.768-27.648 51.2-4.096 13.824-0.512 30.72-1.024 46.08-0.512 24.576-11.776 42.496-34.304 52.224-22.528 9.728-43.52 5.632-61.44-11.776-11.264-10.752-21.504-22.016-33.28-32.256-22.016-19.968-52.736-26.112-75.264-9.728-19.456 14.336-37.888 32.256-52.224 51.712-15.872 21.504-9.728 54.272 9.728 75.264 10.24 11.264 22.016 21.504 32.768 32.256 15.872 15.872 20.992 35.328 14.336 56.832-7.168 22.016-23.552 35.84-46.592 38.912-17.92 2.56-35.84 2.048-53.76 2.56-38.912 2.048-60.928 24.576-62.976 62.976-0.512 11.776-0.512 24.064 0 35.84 1.536 39.936 26.624 64.512 66.56 65.536 14.336 0.512 29.184-0.512 43.52 0.512 24.064 1.536 43.008 12.8 51.712 35.328 8.704 22.528 4.096 43.52-13.824 60.928-9.728 9.728-19.456 19.456-28.672 29.184-4.096 4.096-8.192 8.704-11.264 13.824-20.992 34.816-8.704 69.632 38.912 108.544 27.648 22.528 60.928 21.504 88.064-3.072 11.264-10.24 22.016-21.504 33.28-32.256 17.92-16.384 39.424-20.48 61.952-10.752 20.992 9.216 33.28 26.112 32.768 50.176 0 16.384 0 32.256 1.024 48.64 2.048 31.232 22.528 55.808 53.248 60.416 19.968 3.072 40.96 3.072 60.928 0 28.672-4.096 49.664-29.696 51.2-59.392 1.024-16.896-1.024-34.304 0.512-51.2 2.048-23.552 12.8-41.984 36.352-51.2 23.552-9.216 43.52-3.072 60.928 13.824 7.168 7.168 14.336 14.848 21.504 22.016 4.608 4.608 9.728 9.728 14.848 13.824 34.304 26.112 72.192 15.36 113.664-32.768 25.088-29.184 23.552-64-4.096-91.648-10.752-10.752-22.528-21.504-31.744-33.28-14.848-18.432-19.968-40.448-8.704-62.464 10.24-20.48 28.672-31.232 52.224-31.232 14.336 0 29.184 0.512 43.52 0 34.816-1.536 59.392-22.016 63.488-55.296 2.56-18.432 2.56-37.888 0-56.32-4.608-32.768-30.208-53.76-63.488-55.296-10.24-0.512-20.48-0.512-30.72 0-26.624 3.072-48.64-5.12-66.048-28.16z m-458.24 158.208c20.992-22.016 41.984-44.544 63.488-66.56 40.96-41.472 94.208-42.496 134.144-3.584 40.96 39.936 39.936 92.672-2.56 135.168-22.016 21.504-45.056 41.984-65.536 66.048 55.296 16.384 105.472 7.68 150.016-24.064 71.168-49.664 97.792-133.632 68.608-215.04-5.632-15.36-1.024-23.552 8.704-32.768 53.248-52.224 105.984-103.936 158.72-156.672 30.208-30.208 28.672-66.048-3.072-93.696-25.088-22.016-56.832-20.992-82.432 4.096-53.248 51.712-105.984 104.448-158.208 157.184-12.288 12.288-21.504 15.36-39.424 9.216-70.144-23.552-133.632-9.216-186.88 41.472-50.176 47.616-65.024 107.52-53.248 174.08 2.56 2.048 5.12 3.584 7.68 5.12z m472.576-312.32c-17.92-2.048-29.696-11.264-31.232-30.208-1.536-16.896 14.336-32.768 31.744-32.768 17.408 0 32.256 14.848 31.232 32.768-1.024 19.968-12.8 28.672-31.744 30.208z" horiz-adv-x="1024" />

            <glyph glyph-name="baoming1" unicode="&#58905;" d="M443.567 69.339H279.403v-164.164c0-7.289-2.885-14.199-8.011-19.362-5.125-5.088-12.073-8.049-19.325-8.049h-27.374c-7.251 0-14.199 2.886-19.362 8.049-5.125 5.088-8.011 12.073-8.011 19.286v164.24H33.156a27.54 27.54 0 0 0-19.362 7.974c-5.125 5.163-8.011 12.148-8.011 19.362v27.411c0 15.034 12.225 27.336 27.335 27.336H197.32V315.586c0 7.289 2.885 14.199 8.011 19.362 5.125 5.087 12.073 8.049 19.325 8.049h27.373c7.251 0 14.199-2.886 19.363-8.049 5.125-5.088 8.011-12.073 8.011-19.362v-164.164h164.164c15.11 0 27.374-12.226 27.374-27.336v-27.411c0-7.214-2.885-14.199-8.011-19.362-5.164-5.088-12.112-7.974-19.363-7.974z m574.65 50.419c0-13.668-0.836-27.107-2.203-40.396h-66.438c0.076 3.645 0.531 7.214 0.531 10.935 0 163.404-126.578 282.01-278.139 319.444 0.076 1.746 0.305 3.417 0.305 5.087 0 9.644-0.912 19.059-1.975 28.322 14.579 2.886 41.383 11.846 48.293 14.731 68.49 28.55 116.707 95.978 116.707 174.719 0 96.965-72.971 176.617-166.975 187.779-4.328 4.556-8.883 8.808-13.516 13.136-2.43 19.514-8.504 38.497-17.691 55.961 3.797 0.152 7.518 0.759 11.389 0.759 141.766 0 256.65-114.657 256.65-256.042 0-83.221-39.941-156.875-101.598-203.649 123.543-54.897 214.66-166.44 214.66-310.786zM836.059 78.831h-68.111c-12.453 163.101-148.599 293.172-315.002 293.172-46.281 0-90.017-10.327-129.616-28.322l-54.898 51.481c16.288 8.884 33.258 16.705 50.685 23.159-68.756 46.318-113.974 124.755-113.974 213.748 0 142.296 115.682 257.712 258.396 257.712 142.676 0 258.32-115.416 258.32-257.712 0-91.726-48.142-172.061-120.58-217.772 134.094-55.051 227.793-183.679 234.78-335.466zM656.252 631.31c0 105.849-85.879 191.651-191.804 191.651-105.962 0-191.841-85.803-191.841-191.651 0-95.826 70.464-175.022 162.342-189.222 7.479-0.911 20.881-4.708 54.291-0.76 94.194 12.15 167.012 92.485 167.012 189.982z" horiz-adv-x="1024" />

            <glyph glyph-name="shishijiankong" unicode="&#58926;" d="M757.3 413.4c-113.8 0-206-92.2-206-206s92.2-206 206-206 206 92.2 206 206-92.2 206-206 206z m0-343.3c-75.8 0-137.3 61.5-137.3 137.3 0 75.8 61.5 137.3 137.3 137.3s137.3-61.5 137.3-137.3c0-75.8-61.5-137.3-137.3-137.3zM829.8 205.5h-54v59c0 14.1-11.4 25.5-25.5 25.5s-25.5-11.4-25.5-25.5v-79c0-1.7 0.2-3.4 0.5-5.1v-0.4c0-14.1 11.4-25.5 25.5-25.5h79c14.1 0 25.5 11.4 25.5 25.5s-11.4 25.5-25.5 25.5zM551.8 192.5H128.2V350.9h103.5l85.4 83.2c6.8-3.5 14.5-5.5 22.7-5.5 5.6 0 11 1 16 2.7l54-74.2c-0.5-2.8-0.7-5.6-0.7-8.5 0-27.2 22-49.2 49.2-49.2 26.7 0 48.5 21.3 49.2 47.9l144.8 143.3c11.6-6.2 24.9-9.7 39.1-9.7 45.9 0 83.1 37.2 83.1 83.1 0 45.9-37.2 83.1-83.1 83.1-45.9 0-83.1-37.2-83.1-83.1 0-13.8 3.4-26.9 9.4-38.3l-135.4-134c-7.1 4-15.3 6.2-24 6.2-5.4 0-10.6-0.9-15.4-2.5l-54.4 74.7c0.4 2.5 0.6 5.1 0.6 7.7 0 27.2-22 49.2-49.2 49.2-27.2 0-49.2-22-49.2-49.2v-0.8l-78.9-76.8h-83.3v282c0 10.2 8.3 18.5 18.5 18.5h731c10.2 0 18.5-8.3 18.5-18.5v-322.9c34.8-31.9 58.6-75.7 65.1-124.9V736.7c0 16.8-13.6 30.4-30.4 30.4H93.7c-16.8 0-30.4-13.6-30.4-30.4v-584.6h0.3c1-13.2 12-23.6 25.5-23.6 0.5 0 1.1 0 1.6 0.1v-0.1H567c-8.3 20-13.6 41.5-15.2 64z m138.9 409c19.4 0 35.2-15.8 35.2-35.2 0-19.4-15.8-35.2-35.2-35.2-19.4 0-35.2 15.8-35.2 35.2 0 19.5 15.8 35.2 35.2 35.2z" horiz-adv-x="1024" />

            <glyph glyph-name="chulitubiao" unicode="&#59438;" d="M788.48 512V76.8H235.52V675.84h414.72l51.2 66.56H230.4S174.08 742.4 163.84 675.84V76.8s0-71.68 76.8-71.68h542.72s61.44 5.12 66.56 66.56V563.2l-61.44-51.2z m61.44 163.84s10.24 15.36 0 30.72c0 0-10.24 15.36-30.72 25.6 0 0-25.6 15.36-40.96-5.12l-20.48-20.48 71.68-56.32 20.48 25.6zM588.8 486.4l-10.24-61.44c5.12-20.48 20.48-10.24 20.48-10.24l56.32 25.6c20.48 10.24 30.72 30.72 30.72 30.72l122.88 158.72-71.68 56.32-133.12-168.96c-15.36-20.48-15.36-30.72-15.36-30.72z m97.28-174.08c0 15.36-10.24 15.36-10.24 15.36H348.16c-5.12 0-10.24-5.12-10.24-5.12v-35.84c0-10.24 10.24-10.24 10.24-10.24H665.6c10.24 0 15.36 5.12 15.36 5.12l5.12 30.72z m-10.24-102.4H348.16c-5.12 0-10.24-5.12-10.24-5.12v-35.84c0-10.24 10.24-10.24 10.24-10.24H665.6c10.24 0 15.36 5.12 15.36 5.12v30.72c5.12 15.36-5.12 15.36-5.12 15.36z" horiz-adv-x="1024" />

            <glyph glyph-name="yanzheng" unicode="&#58885;" d="M524.782 171.122c-5.568-5.569-13.26-9.014-21.758-9.014a30.627 30.627 0 0 0-18.336 6.061l-0.001 0.001-0.115 0.085-102.706 75.958-0.117-0.019a15.295 15.295 0 0 1-9.234 3.101c-5.223 0-9.83-2.609-12.611-6.588l-0.03-0.005-10.759-16.427 0.024-0.465a15.297 15.297 0 0 1-2.429-8.274c0-3.613 1.255-6.929 3.34-9.554l0.001-0.017 0.047-0.047a15.479 15.479 0 0 1 2.431-2.417L484.46 72.32c5.567-7.917 14.765-13.096 25.179-13.096 9.731 0 18.401 4.522 24.038 11.575l324.236 321.367c4.258 3.265 7.016 8.39 7.016 14.171 0 9.867-7.999 17.865-17.865 17.865-5.625 0-10.635-2.605-13.91-6.668L524.782 171.122zM959.456 126.057c0 17.008-13.787 30.795-30.795 30.795-17.008 0-30.795-13.787-30.795-30.795 0-2.054 0.205-4.059 0.589-6h-0.341v-108.744c0-7.168-5.832-13-13-13h-746.47c-7.168 0-13 5.832-13 13V121.137h-60v-109.824c0-40.317 32.684-73 73-73h746.47c40.317 0 73 32.683 73 73l0.921 108.744h-0.167c0.383 1.941 0.588 3.946 0.588 6zM125.643 296.815c0 7.168 5.832 13 13 13h317.225l0.233 0.118c16.357 0.124 29.622 13.201 30.059 29.482l5.021 29.847c0.995 9.007 1.512 20.665 1.512 29.677 0 55.245-25.966 121.135-71.24 144.159-34.916 17.757-61.396 36.384-78.706 55.364-20.689 22.686-23.082 40.068-23.082 51.169 0 38.256 30.165 65.776 48.146 78.776 17.528 12.672 38.256 22.718 61.607 29.858 25.033 7.655 51.767 11.536 79.46 11.536s54.427-3.881 79.46-11.536c23.352-7.141 44.08-17.187 61.608-29.858 17.981-13 48.146-40.52 48.146-78.776 0-10.991-2.606-28.253-25.145-51.156-6.363-6.466-13.938-13.038-22.807-19.722-13.05-3.575-22.643-15.512-22.643-29.696 0-17.007 13.787-30.795 30.795-30.795 4.891 0 9.513 1.145 13.62 3.174l0.458-0.549c50.458 34.521 85.721 75.307 85.721 128.742 0 99.505-111.576 180.17-249.213 180.17-137.636 0-249.213-80.665-249.213-180.17 0-69.624 58.469-121.302 134.59-160.014 23.246-11.822 36.92-54.65 38.312-85.407 0.18-1.335 0.281-2.695 0.281-4.08 0-16.742-13.572-30.314-30.314-30.314-0.213 0-0.423 0.012-0.635 0.016l-0.021-0.016H138.643c-40.317 0-73-32.683-73-73V185.99h60V296.815z" horiz-adv-x="1024" />

            <glyph glyph-name="baobiaoguanli" unicode="&#59053;" d="M882.754 675.406s4.927 57.79-62.054 61.734h-60.821v-62.397h41.126s20.029 1.652 19.695-15.756v-644.272s1.308-17.074-13.784-17.074H221.554s-15.436-0.664-14.927 15.77v642.94s-1.482 19.045 16.245 18.767h45.898V736.72l-63.635-0.245s-60.105 1.972-60.105-62.063v-674.809s-2.955-58.124 61.079-63.042h613.608s66.007-3.619 63.037 61.569V675.406zM698.259 737.149h-69.818v-0.009l-72.237 78.52c-22.161 19.375-43.342 17.238-43.342 17.238-26.109 1.487-43.582-17.007-43.582-17.007l-70.369-78.741h-69.814v-61.729H698.26v61.728z m-237.329-0.009l42.862 50.194c9.591 11.916 19.29 0.499 19.29 0.499l41.446-50.693H460.93zM344.975 305.207h29.718c8.749 0 15.845 7.097 15.845 15.855V597.234c0 8.758-7.087 15.845-15.845 15.845h-29.718c-8.749 0-15.845-7.087-15.845-15.845v-276.172c0-8.758 7.097-15.855 15.845-15.855zM528.311 305.207c8.744 0 15.855 7.097 15.855 15.855V597.234c0 8.758-7.111 15.845-15.855 15.845h-29.709c-8.749 0-15.845-7.087-15.845-15.845v-276.172c0-8.758 7.097-15.855 15.845-15.855h29.709zM698.323 597.234c0 8.758-7.097 15.845-15.855 15.845h-29.709c-8.763 0-15.859-7.087-15.859-15.845v-276.172c0-8.758 7.097-15.855 15.859-15.855h29.709c8.758 0 15.855 7.097 15.855 15.855V597.234zM697.945 228.381c0 8.701-7.064 15.77-15.765 15.77H345.084c-8.701 0-15.756-7.068-15.756-15.77v-29.554c0-8.701 7.054-15.77 15.756-15.77h337.082c8.715 0 15.77 7.068 15.77 15.77h0.009v29.554zM345.084 59.594h337.082c8.715 0 15.77 7.068 15.77 15.77h0.009v29.554c0 8.701-7.064 15.77-15.765 15.77H345.084c-8.701 0-15.756-7.069-15.756-15.77v-29.554c0-8.702 7.054-15.77 15.756-15.77z" horiz-adv-x="1024" />

            <glyph glyph-name="lishiguijijiluhehuifang" unicode="&#58916;" d="M485.207 316.068c-22.687 0-41.144 18.458-41.144 41.149v267.817c0.026 22.723 18.468 41.149 41.114 41.149 0.043 0 0.095 0 0.146 0 11.343 0 21.609-4.616 29.020-12.071 7.423-7.4 12.014-17.633 12.014-28.938 0-0.055-0-0.11-0-0.165l0-226.649h173.107c22.692 0 41.149-18.458 41.149-41.144 0-22.692-18.458-41.149-41.149-41.149h-214.257zM511.759-62.203c-0.047-0-0.102-0-0.158-0-113.621 0-217.304 42.548-295.986 112.581-80.474 71.375-132.564 169.69-146.25 276.462-0.216 1.584-0.339 3.415-0.339 5.275 0 9.592 3.273 18.42 8.762 25.428 7.515 9.738 19.298 16.007 32.544 16.007 0.053 0 0.106-0 0.159-0 20.861 0 38.556-15.585 41.151-36.244 23.117-180.465 178.033-316.585 360.351-316.585 200.361 0 363.361 163.005 363.361 363.361s-163 363.361-363.361 363.361c-131.676 0-253.952-72.658-317.732-186.962h47.846c22.861 0 41.467-18.601 41.467-41.467s-18.601-41.462-41.467-41.462h-134.938c-22.861 0-41.462 18.596-41.462 41.462v161.94c0.026 22.897 18.611 41.467 41.431 41.467 22.897 0 41.492-18.601 41.492-41.467v-37.729c35.077 48.755 78.412 89.161 128.315 119.942-65.146-39.291 1.324 9.683 77.785 38.113-22.707 1.249 65.485 28.923 157.343 28.923 60.314 0 118.769-11.791 173.727-35.046 81.963-35.161 149.158-91.562 196.516-162.357-13.732 25.781 18.437-21.932 40.904-75.072 23.204-54.815 34.97-113.27 34.97-173.727 0-60.324-11.796-118.784-35.052-173.727-35.326-82.147-91.889-149.497-162.86-196.999 26.274 14.22-21.44-17.959-74.565-40.426-54.958-23.255-113.408-35.052-173.727-35.052h-0.23z" horiz-adv-x="1024" />

            <glyph glyph-name="zidian" unicode="&#58880;" d="M897.6-41.6c-43.2 0-78.4 28.8-78.4 62.4 0 35.2 35.2 62.4 78.4 62.4 19.2 0 33.6 12.8 33.6 27.2V836.8c0 14.4-16 27.2-33.6 27.2H254.4c-81.6 0-147.2-52.8-147.2-116.8v-724.8c0-65.6 65.6-116.8 147.2-116.8h644.8c19.2 0 33.6 12.8 33.6 27.2 0 14.4-16 25.6-35.2 25.6zM288 809.6h576v-670.4H288V809.6z m-113.6-62.4c0 24 17.6 46.4 44.8 56V136c-16-3.2-30.4-8-44.8-14.4V747.2z m598.4-788.8H254.4c-43.2 0-78.4 28.8-78.4 62.4 0 35.2 35.2 62.4 78.4 62.4h520c-14.4-19.2-24-40-24-62.4 0-20.8 8-43.2 22.4-62.4z m0 0" horiz-adv-x="1024" />

            <glyph glyph-name="baoming" unicode="&#58981;" d="M1024-85.333333c0-25.6-17.066667-42.666667-42.666667-42.666667s-42.666667 17.066667-42.666666 42.666667c0 166.4-132.266667 298.666667-298.666667 298.666666s-298.666667-132.266667-298.666667-298.666666c0-25.6-17.066667-42.666667-42.666666-42.666667s-42.666667 17.066667-42.666667 42.666667c0 153.6 89.6 285.866667 221.866667 345.6-46.933333 29.866667-81.066667 72.533333-106.666667 123.733333H341.333333c25.6 0 42.666667-17.066667 42.666667-42.666667s-17.066667-42.666667-42.666667-42.666666h42.666667c-166.4 0-298.666667-132.266667-298.666667-298.666667 0-25.6-17.066667-42.666667-42.666666-42.666667s-42.666667 17.066667-42.666667 42.666667c0 153.6 89.6 285.866667 221.866667 345.6C140.8 401.066667 85.333333 490.666667 85.333333 597.333333c0 166.4 132.266667 298.666667 298.666667 298.666667 25.6 0 42.666667-17.066667 42.666667-42.666667s-17.066667-42.666667-42.666667-42.666666C264.533333 810.666667 170.666667 716.8 170.666667 597.333333c0-110.933333 89.6-204.8 200.533333-213.333333-21.333333 38.4-29.866667 81.066667-29.866667 128 0 166.4 132.266667 298.666667 298.666667 298.666667s298.666667-132.266667 298.666667-298.666667c0-106.666667-55.466667-196.266667-136.533334-251.733333 132.266667-59.733333 221.866667-192 221.866667-345.6zM853.333333 512c0 119.466667-93.866667 213.333333-213.333333 213.333333s-213.333333-93.866667-213.333333-213.333333 93.866667-213.333333 213.333333-213.333333 213.333333 93.866667 213.333333 213.333333z" horiz-adv-x="1024" />

            <glyph glyph-name="xinpian" unicode="&#58894;" d="M836.66445422 817.73390319H187.44154188c-60.52347532 0-109.70542282-49.18194751-109.81141754-109.81141893v-648.69293321c0.10599611-60.62947004 49.18194751-109.70542282 109.81141754-109.81141892h648.6929332c60.62947004 0.10599611 109.70542282 49.18194751 109.81141894 109.81141892V698.17089108h0.42398164v9.75159318c0 60.62947004-49.18194751 109.81141754-109.70542144 109.81141893z m45.79008877-453.44908036H539.13486849c-7.84367298 0-14.30940351-1.90792019-19.07920469-5.40577502L364.87813915 245.56977542000004c-9.75159316 4.0278326-20.1391602 6.0417475-30.73871806 6.14774361-46.85004565-0.10599611-84.90245756-38.0524119-84.90245756-84.90245755 0.10599611-46.85004565 38.0524119-84.90245756 84.90245756-84.90245755 46.85004565 0.10599611 84.90245756 38.0524119 84.90245756 84.90245755 0 11.34152642-2.33190322 22.47106204-6.78371749 32.85862907l137.58225991 100.05982575h332.50812581V57.533621700000026c0-24.90896135-18.76121775-44.51814243-42.71621696-44.51814245h-650.8128456c-24.37898224 0-42.71621836 19.29119552-42.71621696 44.94212409V402.54922555h343.21367839c6.57172526-0.21199083 13.14345191 1.58993326 18.65522165 5.19378421l0.21199222 0.10599472L663.5736751 520.7342952199999c9.75159316-4.0278326 20.24515492-6.0417475 30.73871805-6.14774361 46.85004565 0 84.90245756 38.0524119 84.90245756 84.90245754-0.10599611 46.85004565-38.0524119 84.79646145-84.90245756 84.90245756-46.85004565-0.10599611-84.90245756-38.0524119-84.90245756-84.90245756 0-11.34152642 2.33190322-22.47106204 6.78371749-32.96462517l-137.58225991-100.05982437H146.10326736V708.87644505c0 25.65092996 18.33723473 44.94212545 42.71621696 44.94212409H839.73832603c24.37898224 0 42.71621836-19.29119552 42.71621696-44.94212409v-344.59162222z m0 0" horiz-adv-x="1024" />

            <glyph glyph-name="huichang" unicode="&#58974;" d="M960 128h-32v64c0 38.4-25.6 64-64 64H832c-38.4 0-64-25.6-64-64v-64H595.2v64c0 38.4-25.6 64-64 64h-32c-38.4 0-64-25.6-64-64v-64H262.4v64c0 38.4-25.6 64-64 64h-32c-38.4 0-64-25.6-64-64v-64H64l-64-192h1024l-64 192zM192 384h147.2l-44.8-44.8c-12.8-12.8-12.8-32 0-44.8 6.4-6.4 12.8-6.4 25.6-6.4s19.2 0 25.6 6.4L428.8 384h166.4l89.6-89.6c6.4-6.4 12.8-6.4 25.6-6.4s19.2 0 25.6 6.4c12.8 12.8 12.8 32 0 44.8l-51.2 44.8H832c38.4 0 64 25.6 64 64V832c0 38.4-25.6 64-64 64H192c-38.4 0-64-25.6-64-64v-384c0-38.4 25.6-64 64-64z m288 352l128-96-128-96v192z" horiz-adv-x="1024" />

            <glyph glyph-name="huishouzhan" unicode="&#58882;" d="M936.98048 690.2784h23.73632a63.2832 63.2832 0 0 1 0 126.58688H673.40288c0 0.77824 0.22528 1.51552 0.22528 2.27328A76.88192 76.88192 0 0 1 596.74624 896h-133.34528a76.86144 76.86144 0 0 1-76.86144-76.84096c0-0.77824 0.2048-1.51552 0.24576-2.27328H99.47136a63.2832 63.2832 0 1 1 0-126.58688h23.73632v-736.89088A81.32608 81.32608 0 0 1 204.57472-128h651.01824a81.36704 81.36704 0 0 1 81.38752 81.38752V690.2784zM195.52256-48.906240000000025V690.2784h664.576v-739.18464H195.52256zM541.22496 495.04256c-6.144 11.65312-12.53376 23.20384-19.23072 34.65216-8.47872 12.5952-24.84224 34.9184-41.75872 37.74464l-5.14048 0.22528h-7.24992a30.1056 30.1056 0 0 1-16.62976-8.88832c-34.26304-33.56672-55.21408-67.19488-72.37632-100.74112 32.13312-18.432 64.3072-36.88448 96.4608-55.37792l65.92512 92.38528zM530.24768 534.85568a778.93632 778.93632 0 0 0 42.63936-83.39456l-51.13856-29.45024 148.31616-14.19264 62.42304 135.53664-51.63008-29.696c-14.04928 28.52864-31.9488 52.28544-59.06432 64.45056-48.72192-0.2048-97.42336-0.45056-146.18624-0.7168 19.31264 0.73728 37.2736-16.73216 54.64064-42.53696zM643.584 341.48352l0.57344 0.83968 0.02048-2.06848 38.07232-81.05984a892.5184 892.5184 0 0 1 46.24384-0.43008c15.99488 1.3312 45.6704 4.93568 54.92736 20.19328 0.34816 0.512 0.57344 1.06496 0.90112 1.536l3.76832 6.77888c0 3.01056-0.43008 6.08256-1.31072 8.99072-12.53376 46.24384-31.49824 80.95744-52.3264 112.41472-31.90784-19.02592-63.73376-37.96992-95.58016-56.99584l4.7104-10.19904zM792.8832 275.78368c-8.9088-17.18272-32.95232-24.22784-63.95904-26.70592-30.72-0.53248-61.76768 0.32768-93.55264 3.70688l-0.63488 58.96192-84.97152-122.28608 87.53152-120.85248-0.59392 59.55584c31.744-1.80224 61.17376 2.21184 85.13536 19.8656l71.04512 127.75424zM390.656 205.312a794.112 794.112 0 0 0 43.60192 82.86208l53.53472-24.90368-73.728 129.47456-146.75968-26.95168 53.98528-25.06752c-15.31904-27.9552-24.3712-56.19712-18.75968-85.4016 28.24192-39.77216 56.4224-79.54432 84.6848-119.21408-11.6736 15.36-7.70048 40.09984 3.44064 69.20192zM526.06976 239.86176l-107.47904 0.73728a883.63008 883.63008 0 0 1-19.02592-39.09632c-5.75488-14.99136-15.2576-43.35616-5.46816-58.30656l1.024-1.47456 4.608-6.4512c3.91168-2.7648 8.11008-4.34176 12.55424-4.97664 47.18592-8.74496 86.67136-6.4512 124.04736-1.29024-3.42016 36.94592-6.81984 73.91232-10.26048 110.85824z" horiz-adv-x="1024" />

            <glyph glyph-name="guanliyuan" unicode="&#59014;" d="M1051.306667 78.711467l-31.607467-25.8048a183.432533 183.432533 0 0 0-4.846933-21.845334l17.8176-35.2256a19.729067 19.729067 0 0 0-1.774934-20.48l-34.542933-45.943466a18.705067 18.705067 0 0 0-19.114667-6.826667l-39.5264 8.874667a164.2496 164.2496 0 0 0-22.254933-10.990934l-16.110933-36.113066a18.978133 18.978133 0 0 0-17.066667-11.332267l-56.661333-0.546133a18.909867 18.909867 0 0 0-17.066667 10.990933l-17.544533 37.2736a163.157333 163.157333 0 0 0-22.391467 11.195733l-37.819733-9.216a18.773333 18.773333 0 0 0-19.2512 6.826667L675.84-25.6a19.729067 19.729067 0 0 0-2.184533 20.48l17.954133 37.0688a163.2256 163.2256 0 0 0-4.9152 22.9376l-30.651733 24.302933a19.6608 19.6608 0 0 0-6.826667 19.592534l12.4928 56.456533a19.182933 19.182933 0 0 0 14.404267 14.677333l39.594666 8.874667a169.028267 169.028267 0 0 0 14.062934 17.749333l-0.546134 31.880534H639.863467a350.685867 350.685867 0 0 1-176.810667 49.698133H454.656a349.184 349.184 0 0 1-343.2448-298.461867 39.936 39.936 0 0 0 1.501867-10.513066l0.341333-3.754667a39.048533 39.048533 0 1 0-78.0288 0v0.4096H34.133333c0 1.160533 0.341333 2.2528 0.477867 3.4816a39.867733 39.867733 0 0 0 1.160533 9.4208 426.939733 426.939733 0 0 0 265.762134 346.658133 311.569067 311.569067 0 0 0-136.533334 261.5296 293.546667 293.546667 0 1 0 586.3424 0A312.046933 312.046933 0 0 0 615.287467 325.290667a414.9248 414.9248 0 0 0 119.534933-75.093334 19.114667 19.114667 0 0 0 4.369067 4.096l50.926933 25.463467a18.500267 18.500267 0 0 0 20.48-2.2528l31.5392-25.873067a156.0576 156.0576 0 0 0 23.9616 0l30.1056 25.1904a18.568533 18.568533 0 0 0 20.48 2.525867l51.131733-24.9856a19.387733 19.387733 0 0 0 10.786134-17.6128v-41.3696a167.458133 167.458133 0 0 0 13.653333-17.8176l38.024533-8.055467a19.182933 19.182933 0 0 0 14.609067-14.472533l13.1072-56.32a19.524267 19.524267 0 0 0-6.690133-20.002133z m-366.592 508.177066a226.0992 226.0992 0 1 1-451.7888 10.513067v-10.6496a225.8944 225.8944 0 1 1 451.447466 0.136533z m325.973333-453.2224l-34.133333 7.236267a18.8416 18.8416 0 0 0-12.288 8.8064 134.3488 134.3488 0 0 1-18.500267 23.9616 19.933867 19.933867 0 0 0-5.5296 13.653333v36.864l-29.422933 14.336-26.8288-22.459733a18.500267 18.500267 0 0 0-14.404267-4.232533 126.1568 126.1568 0 0 1-31.266133 0 18.909867 18.909867 0 0 0-13.653334 4.164266l-28.125866 23.074134-29.2864-14.677334 0.6144-35.498666a19.6608 19.6608 0 0 0-5.666134-14.199467 131.140267 131.140267 0 0 1-18.978133-23.825067 18.909867 18.909867 0 0 0-11.8784-8.533333l-35.2256-7.918933-7.236267-32.426667 27.306667-21.777067a19.2512 19.2512 0 0 0 7.236267-13.653333 133.802667 133.802667 0 0 1 6.485333-30.446933 19.592533 19.592533 0 0 0-0.955733-14.813867l-15.9744-33.041067 20.48-26.0096 33.723733 8.192a19.2512 19.2512 0 0 0 4.437333 0.546134 19.0464 19.0464 0 0 0 10.376534-3.140267 129.706667 129.706667 0 0 1 28.672-14.472533 19.2512 19.2512 0 0 0 10.922666-9.898667l15.633067-33.1776 32.5632 0.341333 14.404267 32.221867a19.2512 19.2512 0 0 0 11.127466 10.308267 128.750933 128.750933 0 0 1 28.672 14.1312 18.705067 18.705067 0 0 0 14.336 2.6624l35.2256-7.918934 19.8656 26.350934-15.906133 31.470933a20.002133 20.002133 0 0 0-1.092267 15.36 132.573867 132.573867 0 0 1 6.826667 29.4912 19.592533 19.592533 0 0 0 6.826667 13.1072l28.194133 22.9376zM853.333333-9.216A86.016 86.016 0 1 0 937.5744 76.8a85.265067 85.265067 0 0 0-84.241067-86.016z m0 133.256533a47.3088 47.3088 0 1 1 46.2848-47.240533 46.762667 46.762667 0 0 1-46.2848 47.240533z" horiz-adv-x="1092" />

            <glyph glyph-name="shujuku-" unicode="&#58969;" d="M512 892.67733333c-261.88 0-459.36-93.504-459.36-217.512v-571.664c0-124.008 197.488-217.512 459.36-217.512 261.88 0 459.368 93.504 459.368 217.512V675.1653333300001c0 124-197.488 217.512-459.368 217.512z m0-527.688c-193.344 0-376.152 65.256-376.152 134.272v47.984C219.976 490.94133333 358.872 457.65333333 512 457.65333333c153.12 0 292.016 33.296 376.16 89.608v-48c0-69.016-182.808-134.272-376.16-134.272z m0-197.888c-193.344 0-376.152 65.264-376.152 134.296v69.96C219.968 315.05333333 358.856 281.76533333 512 281.76533333c153.152 0 292.04 33.288 376.16 89.592v-69.96c0-69.032-182.808-134.296-376.16-134.296z m-376.152 6.368C219.984 117.16533332999995 358.872 83.87733333000006 512 83.87733333000006s292.024 33.288 376.16 89.584v-69.96c0-69.032-182.808-134.296-376.16-134.296-193.344 0-376.152 65.264-376.152 134.296v69.968zM512 540.87733333c-193.344 0-376.152 65.264-376.152 134.288S318.656 809.45333333 512 809.45333333c193.352 0 376.16-65.264 376.16-134.288S705.352 540.87733333 512 540.87733333z" horiz-adv-x="1024" />

            <glyph glyph-name="jifentongdao" unicode="&#58887;" d="M1020.09363 798.90963c-12.629333 48.090074-43.918222 77.899852-90.320593 92.880592-5.30963 1.630815-11.301926 1.403259-16.459852 4.209778H106.477037c-2.730667-2.958222-6.637037-3.166815-10.183111-4.133926A126.407111 126.407111 0 0 1 16.308148 830.615704C8.779852 817.664 6.352593 802.891852 0 789.541926v-810.837333c3.034074-2.787556 3.166815-6.712889 4.133926-10.315852 9.519407-35.062519 29.449481-61.838222 61.174518-79.985778 13.065481-7.528296 27.818667-9.898667 41.168593-16.384h806.836148c4.209778 4.058074 9.746963 2.654815 14.544593 4.058074 34.967704 10.183111 62.122667 29.733926 80.137481 62.122667 7.149037 12.98963 9.519407 27.534222 16.004741 40.504889V787.380148c-4.058074 2.958222-3.034074 7.755852-3.90637 11.510519z m-114.820741-861.677037c-5.461333-0.663704-10.922667-1.554963-16.611556-1.554963H511.962074c-126.919111 0-253.838222-0.151704-380.833185 0-31.592296 0-60.946963 19.986963-66.048 54.821926a116.811852 116.811852 0 0 0-1.611852 17.483851c0 252.586667-0.075852 505.059556 0.056889 757.570371 0 31.345778 20.15763 60.055704 54.46163 65.232592a137.253926 137.253926 0 0 0 19.721481 1.611852c252.207407 0.151704 504.414815 0.284444 756.565333-0.075852 31.213037-0.075852 58.974815-20.062815 64.493037-54.08237 1.175704-7.395556 1.554963-14.468741 1.554963-21.769481 0.151704-250.804148 0.151704-501.513481 0.151704-752.450371 0-31.516444-19.721481-62.008889-55.201185-66.787555zM836.968296 387.754667c-20.214519-0.303407-40.353185 0.075852-60.643555-0.151704-5.499259-0.075852-7.698963 1.270519-9.671111 7.243852a130.218667 130.218667 0 0 1-39.367111 58.652444c-32.57837 27.875556-70.599111 37.869037-111.426371 28.899556-47.29363-10.448593-80.858074-39.518815-96.256-86.20563-2.408296-7.547259-6.030222-8.722963-13.12237-8.666074-53.627259 0.303407-107.33037 0.151704-161.052445 0.151704l-161.128296-0.075852c-17.502815 0-32.521481-15.094519-32.521481-32.274963 0-17.180444 15.322074-31.971556 32.805925-31.971556h326.580149c3.982222 0.075852 6.181926-1.042963 7.092148-5.233777 4.589037-20.233481 15.378963-37.641481 29.866666-51.844741 37.736296-37.205333 82.830222-49.682963 134.504297-33.98163 42.325333 12.913778 69.176889 42.135704 83.968 82.318223 2.939259 7.850667 5.271704 9.045333 12.060444 9.045333 20.517926-0.227556 41.187556-0.151704 61.62963 0 2.730667 0 5.290667-0.758519 8.078222 0.436148 17.806222 7.926519 26.396444 21.598815 23.324444 36.693333-3.337481 16.877037-16.990815 27.268741-34.702222 26.965334z m-195.147852-109.985186c-44.752593 1.21363-75.434667 33.773037-77.482666 73.974519a77.406815 77.406815 0 0 0 21.181629 56.850963 78.961778 78.961778 0 0 0 55.940741 24.576c43.349333 0.682667 82.507852-35.783111 79.492741-82.166519-1.839407-41.680593-37.015704-74.24-79.132445-73.216z m194.996149 369.133038c-117.892741-0.151704-235.804444-0.075852-353.65926-0.151704-5.404444 0-9.40563 0.530963-11.150222 6.504296a119.61837 119.61837 0 0 1-45.264592 64.32237c-34.778074 24.955259-72.628148 33.621333-114.346667 20.916149-44.145778-13.368889-74.012444-41.453037-88.196741-85.390223-1.517037-4.626963-3.242667-6.712889-8.666074-6.504296-10.808889 0.606815-21.579852 0.379259-32.44563 0.151704-16.687407-0.303407-31.383704-15.606519-31.307851-32.350815 0.075852-16.725333 15.246222-31.895704 31.914666-31.895704 9.728 0 19.607704-0.758519 29.259852 0.227556 7.168 0.758519 10.638222-2.465185 12.079407-7.983408 5.650963-21.807407 18.24237-39.158519 34.474667-54.385777 31.232-29.297778 67.811556-40.504889 110.136889-33.185186 52.129185 8.969481 85.769481 39.310222 102.741333 88.462223 1.820444 5.518222 4.532148 7.168 10.486519 7.092148 59.600593-0.227556 119.182222-0.227556 178.858667-0.227556l177.815703 0.075852c2.939259 0 5.95437-0.663704 9.121185 0.758519 16.896 7.395556 25.581037 20.840296 23.077926 35.783111-2.711704 16.118519-16.213333 27.875556-34.929777 27.780741z m-482.797037-110.042075c-51.52237-2.313481-85.769481 37.05363-84.404149 78.127408 1.517037 43.728593 31.914667 76.8 79.966815 77.12237 39.594667 0.284444 78.677333-32.654222 76.47763-78.829037 1.592889-43.026963-37.262222-74.846815-72.040296-76.420741z m482.645333-408.19674c-117.892741-0.208593-235.804444-0.056889-353.640296-0.132741-4.835556 0-9.348741-0.227556-10.998519 5.669926a117.210074 117.210074 0 0 1-46.26963 65.896296c-40.504889 28.387556-83.816296 34.209185-129.896296 14.108445-36.503704-15.909926-59.960889-43.33037-72.343704-80.308149-1.422222-4.247704-2.332444-5.82163-7.168-5.44237a357.717333 357.717333 0 0 1-33.488592 0c-17.445926-0.948148-31.099259-15.208296-31.156148-32.502518a33.185185 33.185185 0 0 1 32.047407-31.668149c9.746963 0 19.626667-0.83437 29.278815 0.208593 7.319704 0.83437 10.42963-3.053037 11.851852-8.059259 5.802667-21.428148 17.957926-38.684444 33.867852-53.722074 31.383704-29.658074 68.266667-41.14963 110.971259-33.678223 51.674074 8.874667 85.162667 38.912 102.286222 87.552 1.668741 4.702815 3.925333 8.059259 10.865778 7.907556 59.297185-0.379259 118.518519-0.208593 177.796741-0.208593h178.877629c3.090963 0 5.878519-0.530963 9.045334 0.89126 17.426963 7.623111 25.581037 21.371259 23.002074 35.783111-2.635852 16.118519-16.137481 27.704889-34.929778 27.704889z m-482.797037-110.023111c-51.749926-2.256593-85.69363 37.413926-84.252445 78.354963 1.649778 43.937185 32.274963 76.724148 80.118519 76.8 38.912 0.075852 78.601481-31.535407 76.325926-78.961778 1.517037-42.666667-37.167407-74.865778-72.192-76.193185z" horiz-adv-x="1024" />

            <glyph glyph-name="zhcc_tiaoxuanwuzi" unicode="&#59000;" d="M1010.2784 69.2224l-156.8768 205.4144c55.7056 53.248 90.5216 127.7952 90.5216 210.7392 0 160.768-130.8672 291.6352-291.6352 291.6352S360.6528 646.144 360.6528 485.376 491.52 193.7408 652.288 193.7408c51.8144 0 100.352 13.7216 142.5408 37.4784L952.32 24.9856c7.168-9.4208 18.0224-14.336 29.0816-14.336 7.7824 0 15.5648 2.4576 22.1184 7.5776 15.7696 12.0832 18.8416 35.0208 6.7584 50.9952zM433.5616 485.376c0 120.6272 98.0992 218.7264 218.7264 218.7264s218.7264-98.0992 218.7264-218.7264-98.0992-218.7264-218.7264-218.7264-218.7264 98.0992-218.7264 218.7264z m0 0M287.5392 632.0128H68.8128c-20.0704 0-36.4544 16.384-36.4544 36.4544s16.384 36.4544 36.4544 36.4544h218.7264c20.0704 0 36.4544-16.384 36.4544-36.4544s-16.384-36.4544-36.4544-36.4544z m0 0M214.6304 340.3776H68.8128c-20.0704 0-36.4544 16.384-36.4544 36.4544s16.384 36.4544 36.4544 36.4544h145.8176c20.0704 0 36.4544-16.384 36.4544-36.4544 0-20.2752-16.384-36.4544-36.4544-36.4544z m0 0M469.8112 85.1968H68.8128c-20.0704 0-36.4544 16.384-36.4544 36.4544s16.384 36.4544 36.4544 36.4544h400.9984c20.0704 0 36.4544-16.384 36.4544-36.4544 0-20.2752-16.384-36.4544-36.4544-36.4544z m0 0" horiz-adv-x="1024" />

            <glyph glyph-name="shishishipinzhibox" unicode="&#58890;" d="M651.636364 669.922078l26.597402 63.009247s16.051532 26.451117-12.633766 39.670026c-28.672 13.232208-40.561039-13.218909-40.561039-13.218909L585.142857 669.922078H452.155844l-39.896104 89.460364s-13.471584 25.879273-39.896104 13.218909c-26.424519-12.647065-13.298701-39.670026-13.298701-39.670026L385.662338 669.922078H252.675325c-51.412779 0-93.090909-41.624935-93.090909-93.037714v-399.067429C159.584416 126.430753 201.302442 84.779221 252.728519 84.779221h531.841663A93.064312 93.064312 0 0 1 877.714286 177.816935V576.884364A93.090909 93.090909 0 0 1 784.623377 669.922078H651.636364zM252.675325 137.974026c-22.035948 0-39.896104 17.900052-39.896104 39.989195V576.738078A40.029091 40.029091 0 0 0 252.675325 616.727273h531.948052c22.035948 0 39.896104-17.900052 39.896104-39.989195v-398.774857A40.029091 40.029091 0 0 0 784.623377 137.974026H252.675325z m225.851844 377.124571C434.58826 541.855584 398.961039 521.907532 398.961039 470.534649v-186.368c0-51.359584 35.680416-71.281039 79.56613-44.563948l146.73787 89.314078c43.938909 26.756987 43.885714 70.150649 0 96.86774l-146.73787 89.314078zM452.155844 284.25974V470.441558l146.285714-93.090909-146.285714-93.090909z" horiz-adv-x="1024" />

            <glyph glyph-name="touxiang1" unicode="&#58941;" d="M732.086857 198.656h-52.077714a104.228571 104.228571 0 0 0-103.277714 91.209143 32.987429 32.987429 0 0 0 13.897142 31.232 388.169143 388.169143 0 0 1 143.213715 296.155428A260.461714 260.461714 0 0 1 486.4 877.714286a260.461714 260.461714 0 0 1-247.515429-260.461715 388.169143 388.169143 0 0 1 142.409143-296.228571c10.093714-6.948571 15.36-19.017143 13.897143-31.158857A104.228571 104.228571 0 0 0 291.84 198.656h-51.2a222.354286 222.354286 0 0 1-222.354286-226.669714c1.901714-32.548571 29.110857-57.782857 61.732572-57.270857h811.885714a60.854857 60.854857 0 0 1 61.659429 57.270857 222.354286 222.354286 0 0 1-221.476572 226.669714z" horiz-adv-x="1024" />

            <glyph glyph-name="huishoushang" unicode="&#58881;" d="M620.544 5.12h-558.08v33.792c0 124.416 278.016 97.792 278.016 219.136 0 11.264 0.512 22.016 0 34.816-13.312 14.336-43.52 51.712-55.808 102.912-12.288 5.632-22.528 17.92-29.184 34.816-9.216 24.064-9.728 57.344 7.68 78.848v1.024c-3.072 30.208-12.288 110.592 36.352 163.328 27.648 30.208 69.632 54.272 123.904 55.808 54.272-1.536 96.256-25.6 123.904-55.808 48.128-52.736 39.424-133.12 36.352-163.328v-1.024c17.408-21.504 16.896-54.784 7.68-78.848-6.656-16.896-16.896-29.184-29.184-34.816-12.288-51.2-42.496-88.576-55.808-102.912 0-12.8-0.512-25.088-0.512-35.84 0-41.984 90.624-94.208 90.624-94.208s-11.776-22.016-6.656-73.216c6.656-51.2 30.72-84.48 30.72-84.48z m-194.048 229.888l-28.16-138.24 28.16-30.72 28.16 30.72-28.16 138.24zM789.504 291.84c-94.72 0-171.52-76.8-171.52-171.52s76.8-171.52 171.52-171.52 171.52 76.8 171.52 171.52-76.8 171.52-171.52 171.52z m104.448-172.032c3.584-6.656 3.584-14.848 0-21.504-3.584-6.144-10.24-10.24-17.408-10.24h-23.552l-25.6 46.592 44.032 26.624 22.528-41.472z m-149.504 102.4c3.072 5.632 8.704 9.216 15.36 9.216h63.488c-9.728 0.512-17.92-4.608-22.528-13.312-6.144-10.752-38.912-71.168-38.912-71.168l-44.032 26.624s20.992 38.912 26.624 48.64z m-28.672-185.344l-31.744 57.344c-3.072 5.632-3.072 12.8 0 18.432l12.8 23.04-16.384 9.728 51.2 0.512 25.6-46.592-16.384 10.24-25.088-45.568c-4.608-8.704-4.608-18.944 0-27.136z m67.584-8.192h-45.568c-7.168 0-13.824 4.096-17.408 10.752-3.584 6.656-3.584 14.848 0 21.504l11.776 20.992h51.2v-53.248z m5.12 134.144l16.384 9.728-11.776 21.504c6.144 10.752 11.776 21.504 11.776 21.504 3.584 6.656 10.24 10.752 17.408 10.752s13.824-4.096 17.408-10.752c2.56-4.608 9.216-16.384 9.216-16.384l16.384 10.24-25.6-46.592h-51.2z m77.824-124.416c-3.072-6.144-9.216-9.216-15.36-9.216h-25.6v-19.968l-25.6 46.592 25.6 46.592v-19.968h50.176c9.216 0 17.92 5.12 22.528 13.312l-31.744-57.344z" horiz-adv-x="1024" />

            <glyph glyph-name="yichangguanli" unicode="&#58976;" d="M63.992001 160.091989h317.272341v63.992001H63.992001V567.529059h703.336083V512.047994h63.992001V896H0V-63.752031h445.192351v63.992001H63.992001V160.091989zM63.992001 832.007999h703.336083v-70.839145H63.992001V832.007999z m0-134.895138h703.336083v-65.591801H63.992001V697.112861zM736.035996 448.247969a288.603925 288.603925 0 0 1-288.283965-288.283965c0-158.764154 129.327834-287.964004 288.283965-287.964004 158.764154 0 287.964004 129.19985 287.964004 287.964004a288.475941 288.475941 0 0 1-287.964004 288.283965z m0-512.255968a224.355956 224.355956 0 0 0-224.291964 223.972003 224.547932 224.547932 0 0 0 224.291964 224.291964c123.504562 0 223.972003-100.595426 223.972003-224.291964 0-123.504562-100.467442-223.972003-223.972003-223.972003zM707.623547 322.183727h63.992001v-228.259468h-63.992001zM737.955756 26.79665m-47.994001 0a47.994001 47.994001 0 1 1 95.988001 0 47.994001 47.994001 0 1 1-95.988001 0Z" horiz-adv-x="1024" />

            <glyph glyph-name="biaoshi-s" unicode="&#59219;" d="M213.333333 896h597.333334a85.333333 85.333333 0 0 0 85.333333-85.333333v-866.133334a42.666667 42.666667 0 0 0-63.402667-37.290666L512.256 85.333333l-320.853333-178.133333A42.666667 42.666667 0 0 0 128-55.509333V810.666667a85.333333 85.333333 0 0 0 85.333333 85.333333z m298.666667-533.333333l87.125333-45.824a21.333333 21.333333 0 0 1 30.976 22.485333l-16.64 97.024 70.485334 68.693333a21.333333 21.333333 0 0 1-11.818667 36.437334l-97.450667 14.165333-43.52 88.277333a21.333333 21.333333 0 0 1-38.272 0l-43.562666-88.32-97.450667-14.122666a21.333333 21.333333 0 0 1-11.818667-36.394667l70.485334-68.693333-16.64-97.066667a21.333333 21.333333 0 0 1 30.976-22.485333L512 362.666667z" horiz-adv-x="1024" />

            <glyph glyph-name="kufangguanli" unicode="&#59039;" d="M361.471 203.936h301.043c12.538 0 23 10.462 23 23s-10.462 23-23 23H361.471c-12.538 0-23-10.462-23-23s10.462-23 23-23zM361.471-26.229h301.043c12.538 0 23 10.462 23 23s-10.462 23-23 23H361.471c-12.538 0-23-10.462-23-23s10.462-23 23-23zM325.02 88.795H697.821c12.538 0 23 10.462 23 23s-10.462 23-23 23H325.02c-12.538 0-23-10.462-23-23s10.462-23 23-23zM943.146 531.56l-74.986 46.481-159.468 98.849-145.716 90.323-41.249 25.569c-6.789 4.208-16.43 4.235-23.217 0l-75.021-46.817-159.218-99.36-144.65-90.269-39.7-24.775c-10.616-6.625-14.726-20.416-8.251-31.468 6.194-10.575 20.824-14.894 31.468-8.251l75.021 46.817 159.218 99.36 144.65 90.269 39.7 24.775H498.51l74.986-46.481 159.468-98.849L878.68 517.41l41.249-25.569c10.664-6.61 25.26-2.348 31.468 8.251 6.459 11.027 2.384 24.875-8.251 31.468zM101.917 532.536l5.707-82.594 12.596-182.297 12.698-183.771 6.012-87.015 0.006-0.089c0.864-12.503 9.809-23 23-23h83.507c12.538 0 23 10.462 23 23V103.718 294.83v83.298l-23-23h532.563l-23 23V-3.23c0-12.538 10.462-23 23-23h88.011c13.102 0 22.255 10.489 23 23l4.918 82.595 10.856 182.297 10.943 183.771 5.182 87.015 0.005 0.089c0.746 12.527-11.026 23-23 23-13.102 0-22.255-10.489-23-23l-4.918-82.594-10.856-182.297-10.943-183.771-5.182-87.015-0.005-0.089 23 23h-88.011l23-23V103.719 294.831v83.298c0 12.538-10.462 23-23 23H245.444c-12.538 0-23-10.462-23-23v-381.358l23 23h-83.507l23-23-5.707 82.595-12.596 182.297-12.698 183.771-6.012 87.015-0.006 0.089c-0.864 12.502-9.809 23-23 23-11.883-0.002-23.866-10.48-23.001-23.002z" horiz-adv-x="1024" />

            <glyph glyph-name="zhengjian" unicode="&#59348;" d="M939.52 808.96c13.824-13.312 20.992-30.208 21.504-51.2v-339.968c-0.512-10.24-4.096-18.432-10.752-25.6s-15.36-10.752-25.6-10.752-18.944 3.584-25.6 10.752c-6.656 7.168-10.24 15.36-10.24 25.6V757.76h-752.64v-752.128h276.992c10.24 0 18.432-3.584 25.088-10.752 6.656-7.168 10.24-15.36 10.24-25.6s-3.584-18.432-10.24-25.6-14.848-10.752-25.088-10.752H136.192c-20.48 0.512-37.888 7.68-51.712 20.992-13.824 13.312-20.48 30.208-20.48 51.2V757.76c0 20.48 6.656 37.888 20.48 51.2 13.824 13.312 30.72 20.48 51.712 20.992h753.152c19.456-0.512 36.352-7.68 50.176-20.992zM202.752 576.512c-6.656 7.168-10.24 15.36-10.24 25.6s3.072 18.432 10.24 25.6c6.656 7.168 15.36 10.752 26.112 10.752h311.808c10.24 0 18.432-3.584 25.088-10.752 6.656-7.168 10.24-15.36 10.24-25.6s-3.584-18.432-10.24-25.6-14.848-10.752-25.088-10.752H228.864c-10.752 0-19.456 3.584-26.112 10.752zM437.76 435.2c6.656-7.168 10.24-15.36 10.24-25.6s-3.584-18.432-10.24-25.6-14.848-10.752-25.088-10.752H228.864c-10.752 0-19.456 3.584-26.112 10.752-6.656 7.168-10.24 15.36-10.24 25.6s3.072 18.432 10.24 25.6c6.656 7.168 15.36 10.752 26.112 10.752h183.808c10.24 0 18.432-3.584 25.088-10.752z m0-192c6.656-7.168 10.24-15.36 10.24-25.6s-3.584-18.432-10.24-25.6-14.848-10.752-25.088-10.752H228.864c-10.752 0-19.456 3.584-26.112 10.752-6.656 7.168-10.24 15.36-10.24 25.6s3.072 18.432 10.24 25.6c6.656 7.168 15.36 10.752 26.112 10.752h183.808c10.24 0 18.432-3.584 25.088-10.752z m515.072-293.376c-5.12-8.192-12.8-12.8-23.04-14.848h-6.144c-8.704 0-16.384 2.56-23.04 8.192-6.656 5.12-10.752 12.288-12.8 20.992-6.144 29.184-19.968 53.248-41.984 71.68-22.016 18.432-48.128 27.648-78.336 27.648s-56.32-9.216-78.336-27.648c-22.016-18.432-35.84-41.984-41.984-71.68-2.048-10.24-7.168-17.408-14.848-23.04-8.192-5.12-16.896-7.168-27.136-5.632-10.24 1.536-17.92 6.656-23.04 14.336-5.12 8.192-7.168 16.896-6.144 27.136 6.656 33.792 20.48 63.488 41.472 88.576s46.592 43.52 77.312 55.296c-17.92 11.776-32.256 27.648-43.008 47.104-10.752 19.456-15.872 40.448-15.872 62.976 0.512 37.376 13.312 68.608 37.888 93.696 24.576 25.088 55.808 37.888 94.208 38.4 37.376-0.512 68.096-13.312 93.184-38.4 24.576-25.088 37.888-56.32 38.912-93.696-0.512-22.528-6.144-43.52-16.896-62.976-10.752-19.456-25.088-34.816-43.008-47.104 30.72-11.776 56.32-30.72 77.312-55.296s34.816-54.272 41.472-88.576c1.536-10.24-0.512-18.944-6.144-27.136z m-227.84 324.096c-11.264-11.264-16.896-25.6-16.896-42.496s5.632-31.232 16.896-42.496c11.264-11.264 25.6-16.896 42.496-16.896s31.232 5.632 42.496 16.896c11.264 11.264 16.896 25.6 16.896 42.496s-5.632 31.232-16.896 42.496c-11.264 11.264-25.6 16.896-41.984 16.896-17.408 0-31.744-5.632-43.008-16.896z" horiz-adv-x="1024" />

            <glyph glyph-name="xiaoyan" unicode="&#58898;" d="M357.76 800L183.04 625.92V-32h426.88v69.12H252.8V556.8h174.72V730.88h291.84v-172.16h69.76V800H357.76zM625.92 336.64a64 64 0 1 1 64-64 64 64 0 0 1-64 64z m0 99.2a251.52 251.52 0 0 1-233.6-165.12 247.04 247.04 0 0 1 467.2 0 251.52 251.52 0 0 1-233.6 165.12z m0-275.84a110.72 110.72 0 1 0 106.24 110.72 108.16 108.16 0 0 0-106.24-110.72z" horiz-adv-x="1024" />

            <glyph glyph-name="guanli" unicode="&#58942;" d="M918.24128 335.68768l-63.0016 44.67712-0.05632 7.32672 63.0528 44.62592c35.24608 24.89344 45.64992 73.40032 23.6544 110.42304l-74.63936 125.25056c-20.6336 34.54464-68.87936 50.17088-106.37824 34.22208l-72.42752-30.6688a144.49664 144.49664 0 0 0-10.0864 9.6512l-7.76704 69.84192c-4.736 41.71264-41.6 74.368-83.95776 74.368H437.35552c-42.30144 0-79.22176-32.65536-83.95776-74.47552l-8.19712-73.83552c-4.68992-1.39776-10.40384-2.80064-15.19616-3.50208L263.17824 702.1568c-37.4528 16.10752-85.74464 0.42496-106.49088-34.2272l-74.48064-125.1328c-22.0928-36.97152-11.74528-85.47328 23.552-110.47936l63.0528-44.62592v-7.32672l-63.09888-44.67712c-35.2-24.90368-45.60384-73.40544-23.61344-110.43328l74.64448-125.24544c20.63872-34.53952 69.03808-50.11968 106.37824-34.22208l72.54528 30.66368a220.6464 220.6464 0 0 0 10.01984-9.58976l7.71072-69.84704c4.6848-41.71264 41.6-74.42944 83.95776-74.42944h149.28384c42.40896 0 79.26784 32.7168 83.95776 74.48576l8.29952 73.88672a124.96384 124.96384 0 0 0 15.35488 3.39456l66.62144-28.50816c37.66272-16.27136 85.46816-0.74752 106.43456 34.22208l74.63936 125.25568c21.88288 37.01248 11.54048 85.46304-23.7056 110.36672z m-36.864-74.37312l-74.53696-125.19424c-2.42176-3.98336-7.38304-6.6816-18.26304-5.60128l-74.8032 32.01024c-22.20032 9.48736-61.16352-4.84864-73.99424-11.20768-15.13472-7.54688-28.12928-27.97056-30.34624-47.64672l-8.832-78.78656c-0.70656-6.35904-7.1168-11.8528-13.96224-11.8528H437.35552c-6.7328 0-13.312 5.54496-14.01344 11.74528l-8.7296 78.89408a35.4304 35.4304 0 0 1-1.50528 7.1168c-7.17312 21.66272-41.01632 46.99648-46.18752 50.28352-7.33184 4.46976-17.5104 7.00928-28.71808 7.00928-6.95808 0-17.46432-0.9728-27.91936-5.44768l-79.60576-32.97792c-5.49888 0-11.264 2.80064-13.4144 6.46656l-74.64448 125.13792c-3.06688 5.17632-1.23904 13.36832 3.82976 16.9216l66.06848 46.83776c13.91104 9.86112 27.5456 29.63968 26.78272 47.15008l-0.16384 20.58752c0.80896 17.88928-10.07104 38.528-26.61888 50.2272l-66.06848 46.83264c-5.01248 3.5584-6.89664 11.7504-3.76832 16.86528l74.47552 125.13792c2.25792 3.71712 8.07936 6.5792 18.26304 5.60128l74.74688-32.00512c23.33696-10.02496 63.4368 6.03648 74.112 11.264 15.08352 7.54688 28.07808 27.97056 30.336 47.58528l8.7296 78.79168c0.70656 6.46656 7.17312 11.85792 14.01344 11.85792h149.28384c6.84544 0 13.25568-5.39136 13.96224-11.7504l8.832-78.8992c0.22016-2.42688 0.70656-4.79744 1.51552-7.11168 7.12192-21.5552 40.96512-46.83264 45.32736-49.58208 13.79328-9.10848 39.60832-9.80992 57.4464-2.1504l79.60576 32.92672c5.49376 0 11.25888-2.80576 13.47584-6.41024l74.57792-125.19424c3.072-5.17632 1.18272-13.36832-3.82976-16.92672l-66.11968-46.83264c-14.06464-10.02496-27.75552-30.06976-26.61888-46.99648l0.05632-20.58752c-0.92672-17.9456 10.02496-38.69696 26.56256-50.38592l66.11968-46.83776c5.00736-3.54816 6.89152-11.74528 3.82464-16.86528zM512 581.81632c-112.256 0-203.60192-88.70912-203.60192-197.7856 0-109.07136 91.34592-197.8368 203.60192-197.8368 112.26112 0 203.60192 88.76544 203.60192 197.8368 0 109.07648-91.3408 197.7856-203.60192 197.7856z m0-325.19168c-73.45152 0-133.2224 57.12384-133.2224 127.40096 0 70.2208 59.77088 127.34976 133.2224 127.34976s133.1712-57.12384 133.1712-127.34976c0-70.27712-59.71968-127.40096-133.1712-127.40096z" horiz-adv-x="1024" />

            <glyph glyph-name="yonghuguanli" unicode="&#59328;" d="M731.136 571.392c0 169.984-138.24 308.224-308.224 308.224s-307.2-139.264-307.2-308.224c0-103.424 53.248-200.704 138.24-257.024C110.592 247.808 16.384 104.448 16.384-56.32c0-24.576 19.456-44.032 44.032-44.032s44.032 19.456 44.032 44.032c0 176.128 143.36 319.488 319.488 319.488 43.008 0 84.992-8.192 123.904-24.576 11.264-4.096 22.528-5.12 33.792 0 11.264 4.096 19.456 13.312 23.552 23.552 8.192 18.432 2.048 39.936-13.312 52.224 86.016 55.296 139.264 152.576 139.264 257.024z m-88.064 0c0-120.832-98.304-220.16-220.16-220.16s-220.16 98.304-220.16 220.16c0 120.832 98.304 220.16 220.16 220.16s220.16-99.328 220.16-220.16zM1004.544 148.48c-2.048 6.144-6.144 12.288-12.288 14.336-6.144 3.072-13.312 3.072-19.456 0-4.096-2.048-8.192-3.072-12.288-3.072-15.36 0-28.672 12.288-28.672 28.672 0 9.216 4.096 17.408 11.264 22.528 5.12 4.096 9.216 10.24 9.216 17.408s-2.048 13.312-7.168 17.408c-23.552 21.504-51.2 36.864-80.896 46.08-6.144 2.048-13.312 1.024-18.432-3.072-5.12-3.072-9.216-9.216-10.24-15.36-2.048-14.336-14.336-24.576-28.672-24.576s-26.624 10.24-28.672 24.576c-1.024 6.144-4.096 12.288-10.24 15.36-5.12 3.072-12.288 4.096-18.432 3.072-31.744-9.216-61.44-26.624-84.992-50.176-5.12-4.096-7.168-11.264-7.168-17.408 0-6.144 3.072-12.288 9.216-16.384 7.168-5.12 11.264-13.312 11.264-22.528 0-15.36-12.288-28.672-28.672-28.672-3.072 0-7.168 1.024-10.24 2.048-6.144 2.048-13.312 2.048-18.432-1.024-6.144-3.072-10.24-8.192-11.264-15.36-3.072-15.36-5.12-30.72-5.12-47.104 0-15.36 2.048-31.744 5.12-47.104 1.024-6.144 5.12-11.264 11.264-14.336 5.12-3.072 12.288-4.096 18.432-2.048 3.072 1.024 6.144 1.024 8.192 1.024 15.36 0 28.672-12.288 28.672-28.672 0-8.192-3.072-16.384-10.24-21.504-5.12-4.096-7.168-10.24-8.192-16.384 0-6.144 2.048-12.288 7.168-16.384 23.552-23.552 54.272-40.96 86.016-50.176 6.144-2.048 13.312-1.024 18.432 3.072 5.12 3.072 9.216 9.216 10.24 15.36 2.048 14.336 14.336 24.576 28.672 24.576s26.624-10.24 28.672-24.576c1.024-6.144 4.096-12.288 10.24-15.36 4.096-2.048 8.192-4.096 12.288-4.096 2.048 0 4.096 0 6.144 1.024 30.72 9.216 60.416 25.6 83.968 48.128 5.12 4.096 7.168 11.264 7.168 17.408 0 6.144-3.072 12.288-9.216 16.384-7.168 5.12-11.264 13.312-11.264 22.528 0 15.36 12.288 28.672 28.672 28.672 4.096 0 7.168-1.024 11.264-2.048 6.144-2.048 13.312-2.048 18.432 1.024 6.144 3.072 10.24 8.192 11.264 14.336 4.096 16.384 6.144 32.768 6.144 49.152-1.024 19.456-3.072 36.864-7.168 53.248zM806.912 6.144c-50.176 0-90.112 40.96-90.112 90.112s40.96 90.112 90.112 90.112 90.112-40.96 90.112-90.112-39.936-90.112-90.112-90.112zM789.398814 55.281026a45.056 45.056 0 1 1 34.484369 83.252633 45.056 45.056 0 1 1-34.484369-83.252633Z" horiz-adv-x="1024" />

            <glyph glyph-name="piciguanlixianxing" unicode="&#58921;" d="M512-107.136c-2.816 0-5.632 0.512-8.32 1.408L78.976 47.232c-9.728 3.456-16.256 12.8-16.256 23.168 0 10.368 6.528 19.712 16.256 23.168l118.784 42.752 16.64-46.336-54.272-19.584L512-56.32l351.872 126.72-54.4 19.584 16.64 46.336 118.784-42.752c9.728-3.456 16.256-12.8 16.256-23.168 0-10.368-6.528-19.712-16.256-23.168L520.32-105.6c-2.688-1.024-5.504-1.536-8.32-1.536zM945.024 173.952l-161.792 58.24-19.456-19.456c-7.168-7.168-15.36-12.928-24.32-17.024l124.544-44.8-351.872-126.72-351.872 126.72 131.584 47.36c-7.04 3.84-13.696 8.704-19.456 14.592L249.6 235.392l-170.624-61.44c-9.728-3.456-16.256-12.8-16.256-23.168s6.528-19.712 16.256-23.168l424.704-152.832c2.688-1.024 5.504-1.408 8.32-1.408s5.632 0.512 8.32 1.408l424.704 152.832c9.728 3.456 16.256 12.8 16.256 23.168s-6.528 19.712-16.256 23.168zM556.672 151.552h-70.016c-37.504 0-67.968 30.464-67.968 67.968V240.64c-7.808 2.816-15.616 6.144-23.552 9.728l-19.968-20.096c-11.392-11.392-26.624-17.792-42.88-17.792s-31.36 6.272-42.88 17.664l-54.656 54.656c-11.392 11.392-17.664 26.624-17.664 42.88s6.272 31.36 17.664 42.88l19.968 20.096c-3.456 7.424-6.656 15.232-9.728 23.424h-21.12c-37.504 0-67.968 30.464-67.968 67.968v62.72c0 37.504 30.464 67.968 67.968 67.968h21.12c2.944 8.064 6.144 16 9.728 23.424l-19.968 20.096c-11.392 11.392-17.664 26.624-17.664 42.88 0 16.128 6.272 31.232 17.664 42.752l0.128 0.128 54.656 54.656c11.392 11.392 26.624 17.792 42.88 17.792s31.488-6.272 42.88-17.664l19.968-20.096c7.68 3.584 15.616 6.912 23.552 9.728V807.168c0 37.504 30.464 67.968 67.968 67.968h62.72c37.504 0 67.968-30.464 67.968-67.968v-20.992c7.68-2.688 15.488-6.016 23.552-9.728l19.968 19.968c11.392 11.392 26.624 17.664 42.88 17.664s31.36-6.272 42.88-17.664l54.656-54.656c11.392-11.392 17.664-26.624 17.664-42.88s-6.272-31.488-17.664-42.88l-19.968-19.968c3.456-7.424 6.784-15.36 9.728-23.552h21.12c37.504 0 67.968-30.464 67.968-67.968V456.96H875.52c-9.856-25.344-34.56-43.264-63.232-43.264h-21.12c-2.944-8.192-6.272-16.128-9.728-23.552l19.968-19.968c11.392-11.392 17.664-26.624 17.664-42.88s-6.272-31.36-17.664-42.88L746.24 230.144c-11.392-11.392-26.624-17.664-42.88-17.664s-31.488 6.272-42.88 17.664l-19.84 19.968c-7.424-3.456-15.36-6.784-23.552-9.6v-28.288c0.128-33.536-27.008-60.672-60.416-60.672z m-110.08 131.456c12.928-4.48 21.504-16.512 21.504-30.208v-33.408c0-10.24 8.32-18.688 18.688-18.688H556.8c6.272 0 11.264 5.12 11.264 11.264v40.576c0 13.696 8.704 25.728 21.504 30.208l7.424 2.56c9.344 3.2 18.176 6.784 26.24 10.752l7.424 3.584c12.16 5.76 26.752 3.2 36.224-6.272l28.544-28.672c2.048-2.048 4.864-3.2 7.936-3.2 3.072 0 5.888 1.152 8.064 3.328l54.656 54.656c2.176 2.176 3.328 4.992 3.328 8.064s-1.152 5.888-3.328 8.064l-28.672 28.672c-9.6 9.6-12.032 24.192-6.144 36.48l3.456 7.04c3.968 8.192 7.68 17.024 11.008 26.496l2.816 7.936c4.608 12.544 16.768 20.992 29.952 20.992h33.408c10.24 0 18.688 8.32 18.688 18.688v24.576h0.128v38.272c0 10.24-8.32 18.688-18.688 18.688h-33.408c-13.696 0-25.728 8.704-30.208 21.504l-2.56 7.424c-3.2 9.344-6.784 18.176-10.752 26.24l-3.584 7.296c-5.76 12.16-3.2 26.752 6.272 36.224l28.672 28.672c2.176 2.176 3.328 4.992 3.328 8.064s-1.152 5.888-3.328 8.064L711.68 761.728c-2.176 2.176-4.992 3.328-8.064 3.328s-5.888-1.152-8.064-3.328L666.88 733.056c-9.472-9.472-24.064-12.032-36.224-6.272l-0.256 0.128-6.912 3.328c-9.216 4.352-18.048 8.064-26.368 10.88l-7.552 2.56c-12.928 4.48-21.504 16.512-21.504 30.208v33.28c0 10.24-8.32 18.688-18.688 18.688h-62.72c-10.24 0-18.688-8.32-18.688-18.688v-33.408c0-13.696-8.704-25.856-21.504-30.208l-7.296-2.56c-8.96-3.072-17.92-6.784-26.496-11.008l-6.912-3.456c-12.288-6.016-27.008-3.456-36.608 6.144L340.48 761.6c-2.048 2.048-4.992 3.2-7.936 3.2-3.072 0-5.888-1.152-8.064-3.328l-54.528-54.656c-2.176-2.304-3.328-4.992-3.328-8.064s1.152-5.888 3.328-8.064l28.544-28.672c9.6-9.472 12.16-24.064 6.4-36.352l-0.128-0.256-3.456-7.04c-3.968-8.192-7.68-17.024-10.88-26.368l-2.56-7.424c-4.352-12.8-16.512-21.504-30.208-21.504h-33.408c-10.24 0-18.688-8.32-18.688-18.688v-62.72c0-10.24 8.32-18.688 18.688-18.688h33.408c13.696 0 25.856-8.704 30.208-21.504l2.56-7.296c3.2-9.472 6.912-18.304 10.88-26.368l3.456-7.04c6.016-12.288 3.456-27.008-6.144-36.608L269.952 335.36c-2.176-2.176-3.328-4.992-3.328-8.064s1.152-5.888 3.328-8.064l54.656-54.656c2.176-2.176 4.992-3.328 8.064-3.328s5.888 1.152 8.064 3.328l28.544 28.672c9.472 9.6 24.064 12.16 36.352 6.4l0.384-0.128 7.04-3.456c8.832-4.224 17.664-7.936 26.368-10.88l7.168-2.176z m159.232-46.592h-0.128 0.128zM263.68 399.232z m-22.4 26.368v-0.128 0.128z m0 175.36v-0.128 0.128zM430.464 790.144h-0.128 0.128zM518.016 359.04c-84.992 0-154.24 69.12-154.24 154.24s69.12 154.24 154.24 154.24 154.24-69.12 154.24-154.24-69.12-154.24-154.24-154.24z m0 283.904c-71.424 0-129.536-58.112-129.536-129.536s58.112-129.536 129.536-129.536c71.424 0 129.536 58.112 129.536 129.536s-57.984 129.536-129.536 129.536z" horiz-adv-x="1024" />

            <glyph glyph-name="touxiang2" unicode="&#58893;" d="M512 364.6c79.9 0 144.9 65 144.9 144.9s-65 144.9-144.9 144.9-144.9-65-144.9-144.9 65-144.9 144.9-144.9z m0 239.1c52 0 94.3-42.3 94.3-94.3S564 415.2 512 415.2s-94.3 42.3-94.3 94.3 42.3 94.2 94.3 94.2zM896 384c0 211.7-172.3 384-384 384S128 595.7 128 384c0-83.3 27.3-164.5 77.1-230.8l-0.2-0.4 11.4-13.7 23-27.7 0.9 1.5C311.9 40.8 409.2 0 512 0c102.8 0 200.1 40.8 271.9 112.9l0.9-1.5 23 27.7 11.4 13.7-0.2 0.4c49.7 66.3 77 147.5 77 230.8zM512 717.4c183.8 0 333.4-149.6 333.4-333.4 0-66-19.7-130.5-56-184.9-1 1.4-2.1 2.7-3.1 4-0.8 1-1.6 2.1-2.4 3.1-1.6 2-3.3 4.1-4.9 6.1-0.6 0.8-1.2 1.5-1.9 2.3-2.3 2.7-4.7 5.4-7 8.1-0.4 0.5-0.9 0.9-1.3 1.4-2 2.2-4 4.3-6 6.4-0.9 0.9-1.8 1.8-2.6 2.7-1.6 1.6-3.2 3.3-4.9 4.9-1 1-2 2-3.1 3-1.5 1.5-3.1 3-4.7 4.4l-3.3 3c-1.6 1.4-3.1 2.8-4.7 4.2-1.1 1-2.3 2-3.4 2.9-1.6 1.3-3.2 2.7-4.8 4-1.1 0.9-2.3 1.9-3.4 2.8-1.7 1.3-3.3 2.6-5 3.9-1.1 0.9-2.2 1.7-3.4 2.6-1.8 1.4-3.6 2.7-5.5 4-1 0.8-2.1 1.5-3.1 2.3-2.2 1.5-4.4 3.1-6.7 4.5-0.7 0.5-1.4 1-2.1 1.4-3 1.9-5.9 3.8-8.9 5.7-0.8 0.5-1.5 0.9-2.3 1.4-2.3 1.4-4.5 2.7-6.8 4-1.1 0.6-2.3 1.3-3.4 1.9-2 1.1-3.9 2.2-5.9 3.2-1.3 0.7-2.5 1.3-3.8 2-1.9 1-3.8 1.9-5.7 2.9-1.3 0.7-2.6 1.3-4 1.9l-5.7 2.7c-1.3 0.6-2.7 1.2-4.1 1.8-1.9 0.8-3.8 1.7-5.8 2.5-1.3 0.6-2.7 1.1-4 1.7l-6 2.4-3.9 1.5-6.6 2.4c-1.1 0.4-2.3 0.8-3.4 1.2-2.9 1-5.7 1.9-8.6 2.8-0.5 0.2-1 0.3-1.5 0.5-3.4 1-6.8 2-10.2 2.9-1 0.3-2 0.5-3 0.8-2.4 0.6-4.9 1.3-7.3 1.8l-3.9 0.9c-2.2 0.5-4.3 1-6.5 1.4-1.4 0.3-2.9 0.6-4.3 0.8l-6.3 1.2c-1.5 0.3-3 0.5-4.4 0.7-2.1 0.3-4.1 0.6-6.2 0.9l-4.5 0.6c-2.1 0.3-4.2 0.5-6.3 0.7-1.5 0.2-2.9 0.3-4.4 0.5-2.2 0.2-4.4 0.4-6.6 0.5l-4.2 0.3c-2.4 0.2-4.8 0.3-7.2 0.4-1.2 0.1-2.4 0.1-3.6 0.2-3.6 0.1-7.2 0.2-10.8 0.2-3.6 0-7.2-0.1-10.8-0.2-1.2 0-2.4-0.1-3.6-0.2-2.4-0.1-4.8-0.2-7.2-0.4l-4.2-0.3c-2.2-0.2-4.4-0.3-6.6-0.5-1.5-0.1-2.9-0.3-4.4-0.5-2.1-0.2-4.2-0.5-6.3-0.7l-4.5-0.6c-2.1-0.3-4.2-0.6-6.2-0.9-1.5-0.2-3-0.5-4.4-0.7l-6.3-1.2c-1.4-0.3-2.8-0.5-4.3-0.8-2.2-0.4-4.4-0.9-6.5-1.4l-3.9-0.9c-2.5-0.6-4.9-1.2-7.3-1.8-1-0.3-2-0.5-3-0.8-3.4-0.9-6.8-1.9-10.2-2.9-0.5-0.1-1-0.3-1.4-0.5-2.9-0.9-5.8-1.8-8.7-2.8-1.1-0.4-2.3-0.8-3.4-1.2-2.2-0.8-4.4-1.5-6.6-2.4l-3.9-1.5-6-2.4c-1.3-0.5-2.7-1.1-4-1.7-1.9-0.8-3.9-1.6-5.8-2.5-1.3-0.6-2.7-1.2-4-1.8l-5.7-2.7c-1.3-0.6-2.6-1.3-3.9-1.9-1.9-0.9-3.8-1.9-5.7-2.9-1.2-0.6-2.5-1.3-3.7-2-2-1.1-4-2.2-5.9-3.3-1.1-0.6-2.2-1.2-3.3-1.9-2.3-1.3-4.6-2.7-6.9-4.1-0.7-0.4-1.5-0.9-2.2-1.3l-9-5.7c-0.7-0.4-1.3-0.9-2-1.4-2.3-1.5-4.5-3-6.8-4.6-1-0.7-2.1-1.5-3.1-2.2-1.8-1.3-3.7-2.7-5.5-4-1.1-0.8-2.2-1.7-3.4-2.6-1.7-1.3-3.4-2.6-5.1-4-1.1-0.9-2.3-1.8-3.4-2.8-1.6-1.3-3.2-2.7-4.9-4-1.1-1-2.2-1.9-3.3-2.9-1.6-1.4-3.2-2.8-4.7-4.2-1.1-1-2.2-2-3.2-2.9-1.6-1.5-3.2-3-4.7-4.5-1-1-2-1.9-3-2.9-1.7-1.6-3.3-3.3-4.9-5l-2.6-2.6c-2.1-2.2-4.1-4.3-6.1-6.6-0.4-0.4-0.8-0.9-1.2-1.3-2.4-2.7-4.7-5.4-7.1-8.1-0.6-0.7-1.2-1.5-1.8-2.2-1.7-2-3.4-4.1-5-6.2-0.8-1-1.6-2-2.4-3.1-1.1-1.4-2.1-2.7-3.2-4.1-36.3 54.5-56 119-56 184.9-0.2 184.1 149.4 333.7 333.2 333.7z m-18-666.3c-2 0.1-3.9 0.3-5.9 0.5-4 0.3-8 0.6-12 1-2.3 0.3-4.7 0.6-7 0.9-3.6 0.5-7.1 0.9-10.7 1.5-2.5 0.4-4.9 0.9-7.4 1.4-3.4 0.6-6.7 1.2-10.1 2-2.5 0.5-5 1.2-7.5 1.8-3.2 0.8-6.5 1.6-9.7 2.5-2.5 0.7-5 1.4-7.5 2.2-3.2 0.9-6.3 1.9-9.5 3-2.5 0.8-4.9 1.7-7.4 2.6-3.1 1.1-6.2 2.2-9.2 3.4-2.4 1-4.9 2-7.3 3l-9 3.9c-2.4 1.1-4.7 2.2-7.1 3.3-3 1.4-5.9 2.9-8.8 4.4-2.3 1.2-4.6 2.4-6.9 3.7-2.9 1.6-5.8 3.3-8.6 5-2.2 1.3-4.4 2.6-6.6 4-2.9 1.8-5.7 3.7-8.5 5.5-2.1 1.4-4.2 2.8-6.2 4.2-2.9 2-5.6 4.1-8.4 6.2-1.9 1.4-3.9 2.9-5.8 4.4-2.9 2.3-5.7 4.6-8.5 7-1.7 1.5-3.5 2.9-5.2 4.4-3 2.6-6 5.4-8.9 8.1-1.4 1.3-2.9 2.6-4.3 4-3.7 3.6-7.4 7.4-11 11.2-0.5 0.6-1.1 1.1-1.6 1.6l-0.2 0.2c0.1 0.2 0.2 0.4 0.4 0.6 0.7 1.1 1.5 2.1 2.2 3.1 1.1 1.5 2.1 3.1 3.2 4.6 0.8 1.1 1.6 2.1 2.4 3.2 1.1 1.4 2.2 2.9 3.3 4.3 0.8 1.1 1.7 2.1 2.5 3.2 1.1 1.4 2.2 2.8 3.3 4.1 0.9 1.1 1.8 2.1 2.7 3.1 1.1 1.3 2.3 2.6 3.4 3.9 0.9 1 1.8 2.1 2.8 3.1 1.2 1.3 2.3 2.6 3.5 3.8 0.9 1 1.9 2 2.9 3 1.2 1.2 2.4 2.5 3.7 3.7 1 1 2 1.9 2.9 2.9 1.3 1.2 2.5 2.4 3.8 3.6 1 0.9 2 1.8 3 2.8 1.3 1.2 2.6 2.3 3.9 3.5 1 0.9 2 1.8 3 2.6 1.3 1.1 2.7 2.3 4.1 3.4 1 0.8 2 1.7 3.1 2.5 1.4 1.1 2.8 2.2 4.3 3.3 1 0.8 2 1.6 3.1 2.3l4.5 3.3 3 2.1c1.6 1.1 3.3 2.3 4.9 3.4l2.7 1.8c1.9 1.3 3.9 2.5 5.9 3.7 0.6 0.4 1.3 0.8 1.9 1.2 5.3 3.2 10.6 6.3 16.1 9.2 0.8 0.4 1.6 0.8 2.4 1.3 1.9 1 3.8 2 5.8 3 1 0.5 2 1 3.1 1.5 1.8 0.8 3.5 1.7 5.3 2.5 1.1 0.5 2.3 1 3.4 1.5 1.7 0.7 3.4 1.5 5 2.2l3.6 1.5c1.7 0.7 3.3 1.3 5 2 1.2 0.5 2.5 0.9 3.8 1.4 1.6 0.6 3.3 1.2 5 1.8 1.3 0.4 2.6 0.9 3.8 1.3 1.6 0.5 3.3 1.1 5 1.6l3.9 1.2c1.6 0.5 3.3 1 5 1.4 1.3 0.4 2.7 0.7 4 1.1 1.7 0.4 3.3 0.9 5 1.3 1.3 0.3 2.7 0.7 4 1 1.7 0.4 3.4 0.7 5 1.1 1.4 0.3 2.7 0.6 4.1 0.8l5.1 0.9c1.4 0.2 2.7 0.5 4.1 0.7 1.7 0.3 3.5 0.5 5.2 0.8 1.3 0.2 2.7 0.4 4 0.6l5.4 0.6c1.3 0.1 2.6 0.3 3.9 0.4 1.9 0.2 3.8 0.3 5.7 0.5 1.2 0.1 2.5 0.2 3.7 0.3l6.3 0.3c1.1 0 2.1 0.1 3.1 0.1 3.1 0.1 6.3 0.2 9.4 0.2 3.2 0 6.3-0.1 9.4-0.2 1.1 0 2.1-0.1 3.2-0.1l6.3-0.3c1.2-0.1 2.5-0.2 3.7-0.3 1.9-0.1 3.8-0.3 5.7-0.5 1.3-0.1 2.6-0.3 3.9-0.4l5.4-0.6c1.3-0.2 2.7-0.4 4-0.6 1.7-0.3 3.5-0.5 5.2-0.8 1.4-0.2 2.7-0.5 4.1-0.7l5.1-0.9c1.4-0.3 2.7-0.6 4.1-0.8 1.7-0.4 3.4-0.7 5-1.1 1.4-0.3 2.7-0.6 4.1-1 1.7-0.4 3.3-0.8 5-1.3 1.3-0.4 2.7-0.7 4-1.1 1.7-0.5 3.3-0.9 5-1.4l3.9-1.2c1.7-0.5 3.3-1.1 5-1.6 1.3-0.4 2.6-0.9 3.9-1.3 1.7-0.6 3.3-1.2 4.9-1.8 1.3-0.5 2.5-0.9 3.8-1.4 1.7-0.6 3.3-1.3 5-2l3.6-1.5c1.7-0.7 3.4-1.4 5-2.2 1.1-0.5 2.3-1 3.4-1.5 1.8-0.8 3.5-1.6 5.3-2.5 1-0.5 2.1-1 3.1-1.5 1.9-1 3.9-2 5.8-3 0.8-0.4 1.6-0.8 2.4-1.3 5.5-2.9 10.8-6 16.1-9.2 0.6-0.4 1.3-0.8 1.9-1.2 2-1.2 3.9-2.5 5.9-3.7l2.7-1.8c1.7-1.1 3.3-2.2 5-3.4 1-0.7 2-1.4 2.9-2.1l4.5-3.3c1-0.8 2-1.5 3-2.3 1.4-1.1 2.9-2.2 4.3-3.3 1-0.8 2-1.7 3.1-2.5 1.4-1.1 2.7-2.3 4.1-3.4 1-0.9 2-1.7 3-2.6 1.3-1.2 2.6-2.3 4-3.5l3-2.7c1.3-1.2 2.6-2.4 3.8-3.6 1-0.9 1.9-1.9 2.9-2.9l3.7-3.7c0.9-1 1.9-2 2.8-2.9l3.6-3.9 2.7-3c1.2-1.3 2.3-2.7 3.5-4 0.9-1 1.8-2.1 2.6-3.1 1.1-1.4 2.3-2.8 3.4-4.2 0.8-1 1.7-2.1 2.5-3.1 1.1-1.4 2.2-2.9 3.3-4.4 0.8-1 1.6-2.1 2.3-3.1 1.1-1.5 2.2-3.1 3.3-4.7l2.1-3c0.1-0.2 0.3-0.4 0.4-0.6l-0.2-0.2c-0.5-0.6-1.1-1.1-1.6-1.7-3.6-3.8-7.2-7.6-10.9-11.2-1.4-1.4-3-2.7-4.4-4.1-2.9-2.7-5.8-5.4-8.7-8-1.8-1.6-3.6-3-5.4-4.5-2.7-2.3-5.5-4.6-8.3-6.8l-6-4.5c-2.7-2-5.4-4.1-8.2-6-2.1-1.5-4.3-2.9-6.5-4.4-2.7-1.8-5.5-3.6-8.3-5.4-2.3-1.4-4.5-2.8-6.8-4.1-2.8-1.6-5.6-3.3-8.4-4.8-2.3-1.3-4.7-2.5-7.1-3.8-2.8-1.5-5.7-2.9-8.6-4.3-2.4-1.2-4.9-2.3-7.3-3.4-2.9-1.3-5.8-2.6-8.8-3.8-2.5-1-5-2.1-7.5-3-3-1.2-6-2.3-9-3.4-2.5-0.9-5-1.8-7.6-2.6-3.1-1-6.2-2-9.2-2.9-2.6-0.8-5.1-1.5-7.7-2.2-3.2-0.9-6.4-1.6-9.5-2.4-2.5-0.6-5.1-1.3-7.6-1.8-3.3-0.7-6.6-1.3-10-1.9-2.5-0.5-5-1-7.5-1.4-3.5-0.6-7-1-10.6-1.5-2.4-0.3-4.7-0.7-7.1-0.9-4-0.4-7.9-0.7-11.9-1-2-0.1-4-0.4-6-0.5-6-0.3-12-0.5-18-0.5-5.8-0.5-11.9-0.3-17.8 0z" horiz-adv-x="1024" />

            <glyph glyph-name="daibaobei" unicode="&#59251;" d="M638.356 350.029l50.284 60.917 66.689-55.049-58.893-69.958c-17.072-20.28-14.472-50.561 5.809-67.633a47.801 47.801 0 0 1 30.888-11.28c13.672 0 27.251 5.811 36.745 17.089l179.448 213.166c17.072 20.28 14.472 50.561-5.809 67.633-20.278 17.073-50.56 14.474-67.633-5.809l-58.728-69.763-67.404 55.639 49.53 60.004c29.655 35.926 43.545 81.248 39.11 127.62-4.434 46.372-26.661 88.241-62.586 117.896s-81.25 43.545-127.62 39.11c-46.356-4.432-88.212-26.646-117.864-62.55l-0.031-0.036-80.062-96.991a0.695 0.695 0 0 1-0.026-0.03L82.667 224.748a47.998 47.998 0 0 1-10.944-28.65l-8.29-208.6a48.002 48.002 0 0 1 47.963-49.907c3.653 0 7.331 0.418 10.96 1.27l203.247 47.672a47.993 47.993 0 0 1 26.057 16.175l286.693 347.318 0.003 0.003z m18.969 384.019c20.85 2.003 41.221-4.251 57.37-17.581 16.149-13.331 26.141-32.152 28.134-52.998s-4.25-41.22-17.581-57.369l-49.531-60.005-120.92 99.814 49.53 60.004c13.331 16.15 32.152 26.142 52.998 28.135zM287.926 76.3l-126.063-29.568 5.142 129.384 276.384 334.828 0.012 0.013 50.285 60.917 120.92-99.815-50.283-60.916-0.002-0.003L287.926 76.3zM902.605 43.592h-415.76c-26.51 0-48-21.49-48-48s21.49-48 48-48h415.76c26.51 0 48 21.49 48 48s-21.49 48-48 48z" horiz-adv-x="1024" />

            <glyph glyph-name="yezhutonghangjilu" unicode="&#58906;" d="M161 640h65.9v-127.8H161zM161 256h65.9v-126.1H161zM161 447.8h65.9V320H161zM781.2 0.39999999999997726H245c-11 0-20 9-20 20V748.2c0 11 9 20 20 20h536.1c11 0 20-9 20-20v-727.9c0.1-10.9-8.9-19.9-19.9-19.9zM512.1 598.7c-59.5 0-107.7-48.2-107.7-107.7s48.2-107.7 107.7-107.7S619.8 431.5 619.8 491s-48.2 107.7-107.7 107.7zM319 235.10000000000002c34-56.2 192.3-63.9 192.3-63.9 127.3 0 192.8 63.9 192.8 63.9 0 122.5-109.8 159.5-109.8 159.5-28.7-30.3-82-31.7-82-31.7-63.8 0-87.3 31.7-87.3 31.7-103.1-34.3-106-159.5-106-159.5z" horiz-adv-x="1024" />

            <glyph glyph-name="cengci" unicode="&#58990;" d="M992.674909 687.010909L532.340364 891.531636a51.153455 51.153455 0 0 1-41.611637 0L30.394182 687.010909a51.153455 51.153455 0 0 1 0-93.463273l460.334545-204.613818c13.265455-5.864727 28.346182-5.864727 41.565091 0l460.334546 204.613818a51.153455 51.153455 0 0 1 0 93.463273zM511.534545 128.744727c-7.168 0-14.242909 1.489455-20.759272 4.421818l-460.334546 204.567273a51.2 51.2 0 0 0 41.518546 93.556364l439.575272-195.397818 439.575273 195.351272a51.2 51.2 0 0 0 41.565091-93.556363l-460.334545-204.567273c-6.562909-2.885818-13.637818-4.375273-20.805819-4.375273zM511.534545-127.022545c-7.168 0-14.242909 1.536-20.759272 4.421818l-460.334546 204.613818a51.2 51.2 0 0 0 41.518546 93.509818l439.575272-195.397818 439.575273 195.351273a51.2 51.2 0 0 0 41.565091-93.509819l-460.334545-204.567272c-6.562909-2.932364-13.637818-4.421818-20.805819-4.421818z" horiz-adv-x="1024" />

            <glyph glyph-name="shipinguanli" unicode="&#59050;" d="M909 4H115a50 50 0 0 0-50 50V714a50 50 0 0 0 50 50h794a50 50 0 0 0 50-50v-660a50 50 0 0 0-50-50z m-131 60h101a20 20 0 0 1 20 20v95H778v-115z m121 175V354H778v-115h121zM243 704h-98a20 20 0 0 1-20-20v-94h118V704z m0-174H125v-116h118V530z m0-176H125v-115h118V354z m0-175H125v-95a20 20 0 0 1 20-20h98V179z m475 525H303v-640h415V704z m181-20a20 20 0 0 1-20 20H778v-114h121v94zM778 530v-116h121V530H778z m-345.331-26.08l0.182 0.014c0.286 0.018 0.573 0.03 0.861 0.04q0.457 0.018 0.915 0.023h0.275a29.844 29.844 0 0 0 14.966-4.015l154.426-89.146a29.977 29.977 0 0 0 5.822-49.737 28.133 28.133 0 0 0-2.232-1.707q-0.817-0.568-1.669-1.079c-0.141-0.084-0.268-0.183-0.411-0.266L449.832 268.02a29.947 29.947 0 0 0-23.918-2.663l-0.1 0.029c-0.326 0.1-0.649 0.215-0.972 0.329-0.157 0.054-0.315 0.105-0.471 0.163-0.183 0.068-0.364 0.143-0.546 0.215-0.282 0.11-0.565 0.219-0.843 0.338-0.048 0.02-0.1 0.044-0.145 0.065a30 30 0 0 0-18.085 27.535V474a30 30 0 0 0 27.917 29.92z m32.086-157.984l65.987 38.086-65.987 38.093v-76.179z" horiz-adv-x="1024" />
        </font>
</defs>
</svg>
